<svg viewBox="0 0 621 176" fill="none" xmlns="http://www.w3.org/2000/svg">
<g clip-path="url(#clip0_1095_11914)">
<path d="M210.941 31.5989C213.398 36.5203 214.718 42.0054 214.718 47.5014C214.718 64.9106 200.357 79.4797 182.792 79.4797C165.227 79.4797 150.866 64.9106 150.866 47.5014C150.866 42.0163 152.187 36.5203 154.643 31.5989H145.39V11.3604H171.84V0H193.755V11.3604H220.205V31.6098H210.952L210.941 31.5989ZM182.976 35.9566C176.926 35.9566 172.013 40.878 172.013 46.9377C172.013 52.9973 176.926 57.9079 182.976 57.9079C189.026 57.9079 193.744 52.9864 193.744 46.9377C193.744 40.8889 189.026 35.9566 182.976 35.9566ZM255.529 176H180.714V112.033H202.629V125.659H233.614V112.033H255.529V176ZM233.614 155.751V144.022H202.629V155.751H233.614ZM269.695 54.1247H254.577V108.629H232.661V7.5664H254.577V32.3577H269.695V54.1247Z" fill="#00AEEF"/>
<path d="M373.232 75.3171H296.524V11.3604H318.439V55.0786H373.232V75.3279V75.3171ZM409.13 108.629H387.215V7.5664H409.13V108.618V108.629Z" fill="#00AEEF"/>
<path d="M518.706 75.3171H441.997V11.3604H516.812V31.6098H463.913V55.0786H518.706V75.3279V75.3171ZM566.313 54.1247H551.195V175.339H529.279V7.5664H551.195V32.3577H566.313V54.1247Z" fill="#00AEEF"/>
<path d="M620.555 175.371H594.863V150.016H620.555V175.371Z" fill="#00AEEF"/>
<path d="M126.538 175.805H0.554993V155.707H126.538V175.805Z" fill="#00AEEF"/>
</g>
<rect x="2.5" y="2.5" width="123" height="172" stroke="#00AEEF" stroke-width="3" stroke-dasharray="6 4"/>
<defs>
<clipPath id="clip0_1095_11914">
<rect width="621" height="176" fill="white"/>
</clipPath>
</defs>
</svg>
