<svg width="26" height="30" viewBox="0 0 26 30" fill="none" xmlns="http://www.w3.org/2000/svg">
<path d="M16.3661 15.0117L10.8411 11.8418V18.1816L16.3661 15.0117ZM22.2857 1.875H3.71429C1.66562 1.875 0 3.55664 0 5.625V24.375C0 26.4434 1.66562 28.125 3.71429 28.125H22.2857C24.3344 28.125 26 26.4434 26 24.375V5.625C26 3.55664 24.3344 1.875 22.2857 1.875ZM23.1214 9.84961C23.5625 11.5254 23.5625 15.0176 23.5625 15.0176C23.5625 15.0176 23.5625 18.5098 23.1214 20.1797C22.8777 21.1055 22.1638 21.8027 21.2527 22.0488C19.6103 22.5 13 22.5 13 22.5C13 22.5 6.38973 22.5 4.74732 22.0547C3.83616 21.8086 3.12232 21.1113 2.87857 20.1855C2.4375 18.5098 2.4375 15.0176 2.4375 15.0176C2.4375 15.0176 2.4375 11.5195 2.87857 9.84961C3.12232 8.92383 3.83616 8.19727 4.74732 7.95117C6.38973 7.5 13 7.5 13 7.5C13 7.5 19.6103 7.5 21.2527 7.95117C22.1638 8.19727 22.8777 8.92383 23.1214 9.84961Z" fill="#FF33AA"/>
</svg>
