<svg  viewBox="0 0 110 110" fill="none" xmlns="http://www.w3.org/2000/svg">
<path d="M79.9355 86.3701C85.6982 86.3704 90.3699 91.0419 90.3701 96.8047C90.3701 102.387 85.986 106.947 80.4727 107.227L79.9355 107.24C76.4682 107.24 73.3961 105.548 71.498 102.945C69.6991 105.412 66.8473 107.062 63.6016 107.227L63.0645 107.24C59.5942 107.24 56.5214 105.545 54.624 102.938C52.8254 105.409 49.9714 107.062 46.7227 107.227L46.1855 107.24C42.7182 107.24 39.6461 105.548 37.748 102.945C35.9491 105.412 33.0973 107.062 29.8516 107.227L29.3145 107.24C23.5514 107.24 18.8789 102.568 18.8789 96.8047L18.8926 96.2676C19.1723 90.7541 23.7318 86.3701 29.3145 86.3701C32.7815 86.3703 35.8515 88.0629 37.749 90.665C39.6471 88.0625 42.7184 86.3701 46.1855 86.3701C49.6548 86.3703 52.7268 88.0649 54.624 90.6699C56.5215 88.0644 59.5948 86.3701 63.0645 86.3701C66.5315 86.3703 69.6015 88.0629 71.499 90.665C73.3971 88.0625 76.4684 86.3701 79.9355 86.3701ZM12.4355 18.8701C18.1982 18.8704 22.8699 23.5419 22.8701 29.3047C22.8701 32.7749 21.1746 35.8478 18.5684 37.7451C21.1744 39.6422 22.8699 42.7145 22.8701 46.1846C22.8701 49.6518 21.1776 52.7224 18.5752 54.6201C21.1774 56.5176 22.87 59.5876 22.8701 63.0547C22.8701 66.5249 21.1746 69.5978 18.5684 71.4951C21.1744 73.3922 22.8699 76.4645 22.8701 79.9346C22.8701 85.5172 18.486 90.0766 12.9727 90.3564L12.4355 90.3701C6.67246 90.3701 2 85.6977 2 79.9346L2.01367 79.3975C2.17855 76.1485 3.83098 73.2937 6.30176 71.4951C3.6955 69.5978 2 66.5249 2 63.0547L2.01367 62.5176C2.17836 59.2715 3.82789 56.419 6.29492 54.6201C3.69251 52.7224 2 49.6518 2 46.1846L2.01367 45.6475C2.17855 42.3985 3.83098 39.5437 6.30176 37.7451C3.6955 35.8478 2 32.7749 2 29.3047L2.01367 28.7676C2.29341 23.2541 6.85289 18.8701 12.4355 18.8701ZM96.8145 18.8701C102.577 18.8704 107.249 23.5419 107.249 29.3047C107.249 32.7749 105.554 35.8478 102.947 37.7451C105.553 39.6422 107.249 42.7145 107.249 46.1846C107.249 49.6518 105.557 52.7224 102.954 54.6201C105.556 56.5176 107.249 59.5876 107.249 63.0547C107.249 66.5249 105.554 69.5978 102.947 71.4951C105.553 73.3922 107.249 76.4645 107.249 79.9346C107.249 85.5172 102.865 90.0766 97.3516 90.3564L96.8145 90.3701C91.0514 90.3701 86.3789 85.6977 86.3789 79.9346L86.3926 79.3975C86.5575 76.1485 88.2099 73.2937 90.6807 71.4951C88.0744 69.5978 86.3789 66.5249 86.3789 63.0547L86.3926 62.5176C86.5573 59.2715 88.2068 56.419 90.6738 54.6201C88.0714 52.7224 86.3789 49.6518 86.3789 46.1846L86.3926 45.6475C86.5575 42.3985 88.2099 39.5437 90.6807 37.7451C88.0744 35.8478 86.3789 32.7749 86.3789 29.3047L86.3926 28.7676C86.6723 23.2541 91.2318 18.8701 96.8145 18.8701ZM63.0645 35.75C68.8271 35.7503 73.4987 40.4219 73.499 46.1846C73.499 49.6518 71.8065 52.7224 69.2041 54.6201C71.8063 56.5176 73.4989 59.5876 73.499 63.0547C73.499 68.6373 69.115 73.1967 63.6016 73.4766L63.0645 73.4902C59.5942 73.4902 56.5214 71.7947 54.624 69.1885C52.8254 71.659 49.9714 73.3117 46.7227 73.4766L46.1855 73.4902C40.4225 73.4902 35.75 68.8178 35.75 63.0547L35.7637 62.5176C35.9284 59.2715 37.5779 56.419 40.0449 54.6201C37.4425 52.7224 35.75 49.6518 35.75 46.1846L35.7637 45.6475C36.0435 40.134 40.6029 35.75 46.1855 35.75C49.6548 35.7502 52.7268 37.4448 54.624 40.0498C56.5214 37.4443 59.5948 35.75 63.0645 35.75ZM54.624 52.3184C53.982 53.2002 53.2065 53.9775 52.3252 54.6201C53.2061 55.2624 53.9822 56.0386 54.624 56.9199C55.2659 56.0385 56.0428 55.2625 56.9238 54.6201C56.0424 53.9774 55.2661 53.2003 54.624 52.3184ZM80.4727 2.01367C85.9857 2.29345 90.3698 6.852 90.3701 12.4346C90.3701 18.0172 85.986 22.5766 80.4727 22.8564L79.9355 22.8701C76.4682 22.8701 73.3961 21.178 71.498 18.5752C69.6991 21.0419 66.8473 22.6917 63.6016 22.8564L63.0645 22.8701C59.5942 22.8701 56.5214 21.1746 54.624 18.5684C52.8254 21.0389 49.9714 22.6916 46.7227 22.8564L46.1855 22.8701C42.7182 22.8701 39.6461 21.178 37.748 18.5752C35.9491 21.0419 33.0973 22.6917 29.8516 22.8564L29.3145 22.8701C23.5514 22.8701 18.8789 18.1977 18.8789 12.4346L18.8926 11.8975C19.1724 6.38403 23.7318 2 29.3145 2L29.8516 2.01367C33.0976 2.1784 35.9501 3.82791 37.749 6.29492C39.6471 3.69237 42.7184 2 46.1855 2L46.7227 2.01367C49.9709 2.17852 52.8253 3.82999 54.624 6.2998C56.5214 3.69427 59.5948 2 63.0645 2L63.6016 2.01367C66.8476 2.1784 69.7001 3.82791 71.499 6.29492C73.3971 3.69237 76.4684 2 79.9355 2L80.4727 2.01367Z" fill="#00AEEF" stroke="#FF74FF" stroke-width="4"/>
</svg>
