<svg  viewBox="0 0 127 127" fill="none" xmlns="http://www.w3.org/2000/svg">
<path d="M63.0645 103.25C68.8271 103.25 73.4987 107.922 73.499 113.685C73.499 119.267 69.115 123.827 63.6016 124.106L63.0645 124.12C57.3014 124.12 52.6289 119.448 52.6289 113.685L52.6426 113.147C52.9224 107.634 57.4818 103.25 63.0645 103.25ZM63.0645 35.75C68.8271 35.7503 73.4987 40.4219 73.499 46.1846C73.499 49.6518 71.8065 52.7224 69.2041 54.6201C70.0833 55.2612 70.8579 56.0358 71.499 56.915C73.3971 54.3125 76.4684 52.6201 79.9355 52.6201C85.6982 52.6204 90.3699 57.2919 90.3701 63.0547C90.3701 68.6373 85.986 73.1967 80.4727 73.4766L79.9355 73.4902C76.4682 73.4902 73.3961 71.7981 71.498 69.1953C70.8554 70.0766 70.0791 70.8532 69.1973 71.4951C71.8033 73.3922 73.4989 76.4645 73.499 79.9346C73.499 85.5172 69.115 90.0766 63.6016 90.3564L63.0645 90.3701C57.3014 90.3701 52.6289 85.6977 52.6289 79.9346L52.6426 79.3975C52.8075 76.1485 54.4599 73.2937 56.9307 71.4951C56.0464 70.8514 55.2677 70.0727 54.624 69.1885C52.8254 71.659 49.9714 73.3117 46.7227 73.4766L46.1855 73.4902C40.4225 73.4902 35.75 68.8178 35.75 63.0547L35.7637 62.5176C36.0434 57.0041 40.6029 52.6201 46.1855 52.6201C49.6548 52.6203 52.7268 54.3149 54.624 56.9199C55.2659 56.0385 56.0428 55.2625 56.9238 54.6201C54.3214 52.7224 52.6289 49.6518 52.6289 46.1846L52.6426 45.6475C52.9224 40.134 57.4818 35.75 63.0645 35.75ZM12.4355 52.6201C18.1982 52.6204 22.8699 57.2919 22.8701 63.0547C22.8701 68.6373 18.486 73.1967 12.9727 73.4766L12.4355 73.4902C6.67246 73.4902 2 68.8178 2 63.0547L2.01367 62.5176C2.29341 57.0041 6.85289 52.6201 12.4355 52.6201ZM113.686 52.6201C119.448 52.6204 124.12 57.2919 124.12 63.0547C124.12 68.6373 119.736 73.1967 114.223 73.4766L113.686 73.4902C107.922 73.4902 103.25 68.8178 103.25 63.0547L103.264 62.5176C103.543 57.0041 108.103 52.6201 113.686 52.6201ZM63.6016 2.01367C69.1146 2.29345 73.4987 6.852 73.499 12.4346C73.499 18.0172 69.115 22.5766 63.6016 22.8564L63.0645 22.8701C57.3014 22.8701 52.6289 18.1977 52.6289 12.4346L52.6426 11.8975C52.9224 6.38403 57.4818 2 63.0645 2L63.6016 2.01367Z" fill="#FFFF85" stroke="#FF74FF" stroke-width="4"/>
</svg>
