<svg width="120" height="34" viewBox="0 0 120 34" fill="none" xmlns="http://www.w3.org/2000/svg">
<path d="M106.626 1.60625V6.16968L106.809 6.35222H109.423V10.4897H106.626V33.7937L106.443 33.9762H102.433L102.25 33.7937V1.60625C102.618 1.44805 106.626 1.38477 106.626 1.60625Z" fill="black"/>
<path d="M37.3262 0.0244141V2.03233L37.5088 2.21486H42.4324V6.109H40.7312C41.6487 8.2386 41.7217 10.098 40.6557 12.179C38.3679 16.6402 31.7552 16.3141 29.6207 11.8163C29.1218 10.7625 29.0123 8.79595 29.1899 7.63988C29.2313 7.37459 29.8033 6.24042 29.6694 6.11143H28.0898V2.21486H32.8918C33.4613 2.21486 32.9575 0.306739 33.3786 0.0244141H37.3311H37.3262ZM36.6667 7.50358C35.8562 6.8002 34.4616 6.87322 33.7388 7.68855C32.9137 8.61828 32.9672 9.89604 33.9213 10.6749C34.5711 11.2079 35.4205 11.3807 36.1994 11.0034C36.4841 10.8647 37.2411 10.1126 37.3019 9.79869C37.4601 8.94928 37.3384 8.08527 36.6691 7.50358H36.6667Z" fill="black"/>
<path d="M39.0257 21.6855V24.3628H44.9229L45.1054 24.1802V21.6855H49.2381V33.9764H34.8906V21.6855H39.0233H39.0257ZM39.0257 27.8918V30.0214L39.2082 30.204H44.9229L45.1054 30.0214V28.0744L44.9229 27.8918H39.0257Z" fill="black"/>
<path d="M99.8144 2.21484V6.10898H89.7237C89.6142 7.28208 89.4633 8.89571 89.5996 10.0664C89.6312 10.339 89.6896 10.5483 89.9062 10.7333H100.179V14.6274H85.5302L85.3477 14.4449V2.39738L85.5302 2.21484H99.8168H99.8144Z" fill="black"/>
<path d="M49.2378 6.35204H52.0343V10.4896H49.2987L49.1161 10.6721V20.8942L48.9336 21.0767H45.0419L44.8594 20.8942V1.60607C44.9786 1.64501 45.1222 1.48438 45.1636 1.48438H48.9336L49.1161 1.66691V6.04781C49.1161 6.08919 49.2768 6.23278 49.2378 6.35204Z" fill="black"/>
<path d="M24.4381 30.2037V33.9762H0V30.2646L0.182537 30.082H24.1339C24.1753 30.082 24.3189 30.2427 24.4381 30.2037Z" fill="black"/>
<path d="M72.0998 10.7333V14.6274H57.4482L57.2656 14.4449V2.39738L57.4482 2.21484H61.3399L61.5224 2.39738V10.5507L61.7049 10.7333H72.0998Z" fill="black"/>
<path d="M79.0263 1.60598V20.8941L78.8438 21.0766H74.9521L74.7695 20.8941V1.60598C75.1297 1.44291 79.0239 1.3918 79.0239 1.60598H79.0263Z" fill="black"/>
<path d="M115.012 33.9767V29.1698L115.194 28.9873H119.816L119.999 29.1698V33.7941L119.816 33.9767H115.012Z" fill="black"/>
</svg>
