<svg viewBox="0 0 622 176" fill="none" xmlns="http://www.w3.org/2000/svg">
<g clip-path="url(#clip0_924_4528)">
<path d="M211.441 31.5989C213.898 36.5203 215.218 42.0054 215.218 47.5014C215.218 64.9106 200.857 79.4797 183.293 79.4797C165.728 79.4797 151.367 64.9106 151.367 47.5014C151.367 42.0163 152.687 36.5203 155.144 31.5989H145.891V11.3604H172.34V0H194.256V11.3604H220.705V31.6098H211.452L211.441 31.5989ZM183.477 35.9566C177.427 35.9566 172.514 40.878 172.514 46.9377C172.514 52.9973 177.427 57.9079 183.477 57.9079C189.526 57.9079 194.245 52.9864 194.245 46.9377C194.245 40.8889 189.526 35.9566 183.477 35.9566ZM256.029 176H181.215V112.033H203.13V125.659H234.114V112.033H256.029V176ZM234.114 155.751V144.022H203.13V155.751H234.114ZM270.196 54.1247H255.077V108.629H233.162V7.5664H255.077V32.3577H270.196V54.1247Z" fill="#00AEEF"/>
<path d="M373.732 75.3171H297.023V11.3604H318.939V55.0786H373.732V75.3279V75.3171ZM409.63 108.629H387.714V7.56641H409.63V108.618V108.629Z" fill="#00AEEF"/>
<path d="M519.207 75.3171H442.498V11.3604H517.313V31.6098H464.413V55.0786H519.207V75.3279V75.3171ZM566.814 54.1247H551.695V175.339H529.78V7.56641H551.695V32.3577H566.814V54.1247Z" fill="#00AEEF"/>
<path d="M621.055 175.371H595.363V150.016H621.055V175.371Z" fill="#00AEEF"/>
<path d="M127.037 175.805H1.05469V155.707H127.037V175.805Z" fill="#00AEEF"/>
</g>
<defs>
<clipPath id="clip0_924_4528">
<rect width="621" height="176" fill="white" transform="translate(0.5)"/>
</clipPath>
</defs>
</svg>
