<svg  viewBox="0 0 120 54" fill="none" xmlns="http://www.w3.org/2000/svg">
<path d="M106.626 11.6062V16.1697L106.809 16.3522H109.423V20.4897H106.626V43.7937L106.443 43.9762H102.433L102.25 43.7937V11.6062C102.618 11.448 106.626 11.3848 106.626 11.6062Z" fill="#FF33AA"/>
<path d="M37.3262 10.0244V12.0323L37.5088 12.2149H42.4324V16.109H40.7312C41.6487 18.2386 41.7217 20.098 40.6557 22.179C38.3679 26.6402 31.7552 26.3141 29.6207 21.8163C29.1218 20.7625 29.0123 18.7959 29.1899 17.6399C29.2313 17.3746 29.8033 16.2404 29.6694 16.1114H28.0898V12.2149H32.8918C33.4613 12.2149 32.9575 10.3067 33.3786 10.0244H37.3311H37.3262ZM36.6667 17.5036C35.8562 16.8002 34.4616 16.8732 33.7388 17.6886C32.9137 18.6183 32.9672 19.896 33.9213 20.6749C34.5711 21.2079 35.4205 21.3807 36.1994 21.0034C36.4841 20.8647 37.2411 20.1126 37.3019 19.7987C37.4601 18.9493 37.3384 18.0853 36.6691 17.5036H36.6667Z" fill="#FF33AA"/>
<path d="M39.0257 31.6855V34.3628H44.9229L45.1054 34.1802V31.6855H49.2381V43.9764H34.8906V31.6855H39.0233H39.0257ZM39.0257 37.8918V40.0214L39.2082 40.204H44.9229L45.1054 40.0214V38.0744L44.9229 37.8918H39.0257Z" fill="#FF33AA"/>
<path d="M99.8144 12.2148V16.109H89.7237C89.6142 17.2821 89.4633 18.8957 89.5996 20.0664C89.6312 20.339 89.6896 20.5483 89.9062 20.7333H100.179V24.6274H85.5302L85.3477 24.4449V12.3974L85.5302 12.2148H99.8168H99.8144Z" fill="#FF33AA"/>
<path d="M49.2378 16.352H52.0343V20.4896H49.2987L49.1161 20.6721V30.8942L48.9336 31.0767H45.0419L44.8594 30.8942V11.6061C44.9786 11.645 45.1222 11.4844 45.1636 11.4844H48.9336L49.1161 11.6669V16.0478C49.1161 16.0892 49.2768 16.2328 49.2378 16.352Z" fill="#FF33AA"/>
<path d="M24.4381 40.2037V43.9762H0V40.2646L0.182537 40.082H24.1339C24.1753 40.082 24.3189 40.2427 24.4381 40.2037Z" fill="#FF33AA"/>
<path d="M72.0998 20.7333V24.6274H57.4482L57.2656 24.4449V12.3974L57.4482 12.2148H61.3399L61.5224 12.3974V20.5507L61.7049 20.7333H72.0998Z" fill="#FF33AA"/>
<path d="M79.0263 11.606V30.8941L78.8438 31.0766H74.9521L74.7695 30.8941V11.606C75.1297 11.4429 79.0239 11.3918 79.0239 11.606H79.0263Z" fill="#FF33AA"/>
<path d="M115.012 43.9767V39.1698L115.194 38.9873H119.816L119.999 39.1698V43.7941L119.816 43.9767H115.012Z" fill="#FF33AA"/>
</svg>
