<svg width="120" height="34" viewBox="0 0 120 34" fill="none" xmlns="http://www.w3.org/2000/svg">
<path d="M106.626 1.606V6.16944L106.809 6.35197H109.423V10.4895H106.626V33.7934L106.443 33.976H102.433L102.25 33.7934V1.606C102.618 1.4478 106.626 1.38452 106.626 1.606Z" fill="#00AEEF"/>
<path d="M37.3243 0.0240173V2.03193L37.5068 2.21447H42.4305V6.1086H40.7292C41.6468 8.2382 41.7198 10.0976 40.6538 12.1786C38.366 16.6398 31.7532 16.3137 29.6188 11.8159C29.1198 10.7621 29.0103 8.79555 29.188 7.63948C29.2294 7.37419 29.8013 6.24003 29.6674 6.11103H28.0879V2.21447H32.8898C33.4594 2.21447 32.9556 0.306342 33.3766 0.0240173H37.3292H37.3243ZM36.6647 7.50318C35.8542 6.79981 34.4597 6.87282 33.7368 7.68816C32.9117 8.61788 32.9653 9.89564 33.9194 10.6745C34.5692 11.2075 35.4186 11.3803 36.1974 11.003C36.4822 10.8643 37.2391 10.1123 37.2999 9.79829C37.4581 8.94888 37.3365 8.08487 36.6671 7.50318H36.6647Z" fill="#00AEEF"/>
<path d="M39.0257 21.6851V24.3623H44.9229L45.1054 24.1798V21.6851H49.2381V33.976H34.8906V21.6851H39.0233H39.0257ZM39.0257 27.8914V30.021L39.2082 30.2035H44.9229L45.1054 30.021V28.0739L44.9229 27.8914H39.0257Z" fill="#00AEEF"/>
<path d="M99.8163 2.21448V6.10861H89.7256C89.6161 7.28172 89.4652 8.89535 89.6015 10.066C89.6332 10.3386 89.6916 10.5479 89.9082 10.7329H100.181V14.627H85.5321L85.3496 14.4445V2.39701L85.5321 2.21448H99.8187H99.8163Z" fill="#00AEEF"/>
<path d="M49.2398 6.35198H52.0363V10.4895H49.3006L49.1181 10.672V20.8941L48.9356 21.0767H45.0439L44.8613 20.8941V1.60601C44.9806 1.64495 45.1242 1.48431 45.1656 1.48431H48.9356L49.1181 1.66685V6.04775C49.1181 6.08912 49.2787 6.23272 49.2398 6.35198Z" fill="#00AEEF"/>
<path d="M24.4381 30.2035V33.976H0V30.2644L0.182537 30.0818H24.1339C24.1753 30.0818 24.3189 30.2425 24.4381 30.2035Z" fill="#00AEEF"/>
<path d="M72.0979 10.7329V14.627H57.4462L57.2637 14.4445V2.39701L57.4462 2.21448H61.3379L61.5204 2.39701V10.5504L61.703 10.7329H72.0979Z" fill="#00AEEF"/>
<path d="M79.0263 1.60601V20.8941L78.8438 21.0767H74.9521L74.7695 20.8941V1.60601C75.1297 1.44294 79.0239 1.39183 79.0239 1.60601H79.0263Z" fill="#00AEEF"/>
<path d="M115.012 33.976V29.1692L115.194 28.9866H119.816L119.999 29.1692V33.7935L119.816 33.976H115.012Z" fill="#00AEEF"/>
</svg>
