<svg width="22" height="26" viewBox="0 0 22 26" fill="none" xmlns="http://www.w3.org/2000/svg">
<path d="M11.001 1.5C11.8355 1.50011 12.6402 1.82642 13.2373 2.41406L13.2383 2.41504L19.5615 8.64551C19.8575 8.93727 20.0935 9.28491 20.2549 9.66895C20.4163 10.0531 20.5 10.4657 20.5 10.8828C20.5 11.2998 20.4163 11.7126 20.2549 12.0967C20.0935 12.4806 19.8574 12.8285 19.5615 13.1201C19.2657 13.4116 18.9158 13.6422 18.5322 13.7988H18.5312C18.1476 13.9554 17.7372 14.0351 17.3232 14.0352C16.9091 14.0352 16.4981 13.9555 16.1143 13.7988C15.7304 13.6421 15.3799 13.4118 15.084 13.1201L14.1768 12.2256V21.3477C14.1767 22.1906 13.8371 22.9946 13.2393 23.584C12.642 24.1726 11.8363 24.4999 11.001 24.5C10.1655 24.5 9.35903 24.1727 8.76172 23.584C8.16393 22.9946 7.82423 22.1906 7.82422 21.3477V12.2246L6.91602 13.1201C6.31861 13.7089 5.51235 14.0352 4.67676 14.0352C3.84137 14.0351 3.0358 13.7087 2.43848 13.1201C1.84038 12.5306 1.50006 11.726 1.5 10.8828C1.5 10.0396 1.84033 9.23507 2.43848 8.64551L8.76367 2.41504V2.41406C9.36085 1.82628 10.1662 1.5 11.001 1.5Z" fill="#BCEDD8" stroke="#34CD8C" stroke-width="3"/>
</svg>
