<svg width="26" height="30" viewBox="0 0 26 30" fill="none" xmlns="http://www.w3.org/2000/svg">
<path d="M11.2821 12.4043C10.9441 12.6324 10.6539 12.9256 10.4281 13.2669C10.2023 13.6083 10.0453 13.9912 9.96613 14.3939C9.80614 15.207 9.97264 16.051 10.429 16.7402C10.8854 17.4294 11.5942 17.9074 12.3997 18.0689C13.2051 18.2304 14.041 18.0623 14.7237 17.6016C15.4063 17.1408 15.8797 16.4251 16.0397 15.612C16.1997 14.7988 16.0332 13.9548 15.5768 13.2656C15.1204 12.5764 14.4116 12.0985 13.6062 11.937C12.8008 11.7754 11.9648 11.9435 11.2821 12.4043ZM19.5406 8.39648C19.2388 8.0918 18.8732 7.85156 18.4728 7.69336C17.4223 7.27734 15.1299 7.29492 13.65 7.3125C13.4121 7.3125 13.1915 7.31836 13 7.31836C12.8085 7.31836 12.5821 7.31836 12.3384 7.3125C10.8585 7.29492 8.57768 7.27148 7.52723 7.69336C7.12679 7.85156 6.76696 8.0918 6.45937 8.39648C6.15179 8.70117 5.91964 9.07031 5.76295 9.47461C5.35089 10.5352 5.37411 12.8555 5.38571 14.3496C5.38571 14.5898 5.39152 14.8125 5.39152 15C5.39152 15.1875 5.39152 15.4102 5.38571 15.6504C5.37411 17.1445 5.35089 19.4648 5.76295 20.5254C5.91964 20.9297 6.15759 21.293 6.45937 21.6035C6.76116 21.9141 7.12679 22.1484 7.52723 22.3066C8.57768 22.7227 10.8701 22.7051 12.35 22.6875C12.5879 22.6875 12.8085 22.6816 13 22.6816C13.1915 22.6816 13.4179 22.6816 13.6616 22.6875C15.1415 22.7051 17.4223 22.7285 18.4728 22.3066C18.8732 22.1484 19.233 21.9082 19.5406 21.6035C19.8482 21.2988 20.0804 20.9297 20.2371 20.5254C20.6549 19.4707 20.6317 17.1621 20.6143 15.6621C20.6143 15.416 20.6085 15.1875 20.6085 14.9941C20.6085 14.8008 20.6085 14.5781 20.6143 14.3262C20.6317 12.832 20.6549 10.5234 20.2371 9.46289C20.0804 9.05859 19.8424 8.69531 19.5406 8.38477V8.39648ZM15.6464 11.0039C16.6962 11.7125 17.4241 12.8131 17.6701 14.0636C17.916 15.3141 17.6599 16.612 16.958 17.6719C16.2562 18.7317 15.166 19.4666 13.9274 19.715C12.6889 19.9633 11.4033 19.7047 10.3536 18.9961C9.83379 18.6456 9.38748 18.1952 9.04012 17.6705C8.69276 17.1459 8.45115 16.5573 8.32909 15.9384C8.20702 15.3195 8.2069 14.6824 8.32872 14.0635C8.45053 13.4445 8.69191 12.8558 9.03906 12.3311C9.38622 11.8063 9.83235 11.3557 10.352 11.005C10.8716 10.6543 11.4546 10.4103 12.0676 10.2871C12.6806 10.1639 13.3117 10.1637 13.9247 10.2867C14.5378 10.4097 15.1208 10.6534 15.6406 11.0039H15.6464ZM17.3411 10.9277C17.1612 10.8047 17.0161 10.6289 16.929 10.4238C16.842 10.2187 16.8246 9.99609 16.8652 9.77344C16.9058 9.55078 17.0161 9.35742 17.167 9.19922C17.3179 9.04102 17.521 8.93555 17.7357 8.89453C17.9504 8.85352 18.1768 8.87109 18.3799 8.95898C18.583 9.04687 18.7571 9.1875 18.879 9.36914C19.0009 9.55078 19.0647 9.76758 19.0647 9.99023C19.0647 10.1367 19.0357 10.2832 18.9835 10.418C18.9312 10.5527 18.8442 10.6758 18.7455 10.7812C18.6469 10.8867 18.5192 10.9687 18.3857 11.0273C18.2522 11.0859 18.1071 11.1152 17.9621 11.1152C17.7415 11.1152 17.5268 11.0508 17.3469 10.9277H17.3411ZM26 5.625C26 3.55664 24.3344 1.875 22.2857 1.875H3.71429C1.66562 1.875 0 3.55664 0 5.625V24.375C0 26.4434 1.66562 28.125 3.71429 28.125H22.2857C24.3344 28.125 26 26.4434 26 24.375V5.625ZM20.7187 22.793C19.6335 23.8887 18.3161 24.2344 16.8304 24.3105C15.2982 24.3984 10.7018 24.3984 9.16964 24.3105C7.68393 24.2344 6.36652 23.8887 5.28125 22.793C4.19598 21.6973 3.85357 20.3672 3.78393 18.8672C3.69687 17.3203 3.69687 12.6797 3.78393 11.1328C3.85937 9.63281 4.19598 8.30273 5.28125 7.20703C6.36652 6.11133 7.68973 5.76562 9.16964 5.69531C10.7018 5.60742 15.2982 5.60742 16.8304 5.69531C18.3161 5.77148 19.6335 6.11133 20.7187 7.20703C21.804 8.30273 22.1464 9.63281 22.2161 11.1328C22.3031 12.6738 22.3031 17.3086 22.2161 18.8613C22.1406 20.3613 21.804 21.6914 20.7187 22.7871V22.793Z" fill="#A4A4A4"/>
</svg>
