<svg width="37" height="37" viewBox="0 0 37 37" fill="none" xmlns="http://www.w3.org/2000/svg">
<path d="M13.7917 27.3333C10.0069 27.3333 6.80417 26.0222 4.18333 23.4C1.5625 20.7778 0.25139 17.575 0.250001 13.7917C0.248612 10.0083 1.55972 6.80556 4.18333 4.18333C6.80695 1.56111 10.0097 0.25 13.7917 0.25C17.5736 0.25 20.7771 1.56111 23.4021 4.18333C26.0271 6.80556 27.3375 10.0083 27.3333 13.7917C27.3333 15.3194 27.0903 16.7604 26.6042 18.1146C26.1181 19.4688 25.4583 20.6667 24.625 21.7083L36.2917 33.375C36.6736 33.7569 36.8646 34.2431 36.8646 34.8333C36.8646 35.4236 36.6736 35.9097 36.2917 36.2917C35.9097 36.6736 35.4236 36.8646 34.8333 36.8646C34.2431 36.8646 33.7569 36.6736 33.375 36.2917L21.7083 24.625C20.6667 25.4583 19.4688 26.1181 18.1146 26.6042C16.7604 27.0903 15.3194 27.3333 13.7917 27.3333ZM13.7917 23.1667C16.3958 23.1667 18.6097 22.2556 20.4333 20.4333C22.2569 18.6111 23.1681 16.3972 23.1667 13.7917C23.1653 11.1861 22.2542 8.97292 20.4333 7.15208C18.6125 5.33125 16.3986 4.41944 13.7917 4.41667C11.1847 4.41389 8.97153 5.3257 7.15209 7.15208C5.33264 8.97847 4.42083 11.1917 4.41667 13.7917C4.4125 16.3917 5.32431 18.6056 7.15209 20.4333C8.97986 22.2611 11.1931 23.1722 13.7917 23.1667Z" fill="#FF33AA"/>
</svg>
