<svg width="28" height="26" viewBox="0 0 28 26" fill="none" xmlns="http://www.w3.org/2000/svg">
<path d="M14 1.08398C17.9887 1.08398 21.2227 4.31792 21.2227 8.30664C21.2226 9.09143 21.0948 9.84628 20.8633 10.5537C24.337 11.0773 27 14.0755 27 17.6953C26.9999 21.6839 23.766 24.917 19.7773 24.917C17.4148 24.9169 15.3176 23.7823 14 22.0283C12.6824 23.7823 10.5852 24.9169 8.22266 24.917C4.23401 24.917 1.00012 21.6839 1 17.6953C1 14.0759 3.66245 11.0777 7.13574 10.5537C6.90429 9.84636 6.77739 9.09132 6.77734 8.30664C6.77734 4.31792 10.0113 1.08398 14 1.08398Z" fill="white"/>
<path d="M21.2227 8.30664L22.2227 8.3067V8.30664H21.2227ZM20.8633 10.5537L19.9129 10.2427L19.5452 11.3663L20.7142 11.5425L20.8633 10.5537ZM27 17.6953L28 17.6953V17.6953H27ZM19.7773 24.917L19.7773 25.917H19.7773V24.917ZM14 22.0283L14.7995 21.4277L14 20.3633L13.2005 21.4277L14 22.0283ZM8.22266 24.917V25.917H8.22271L8.22266 24.917ZM1 17.6953H0V17.6953L1 17.6953ZM7.13574 10.5537L7.28492 11.5425L8.45377 11.3662L8.08616 10.2427L7.13574 10.5537ZM6.77734 8.30664H5.77734V8.3067L6.77734 8.30664ZM14 1.08398V2.08398C17.4364 2.08398 20.2227 4.8702 20.2227 8.30664H21.2227H22.2227C22.2227 3.76563 18.541 0.0839844 14 0.0839844V1.08398ZM21.2227 8.30664L20.2227 8.30658C20.2226 8.9821 20.1127 9.63211 19.9129 10.2427L20.8633 10.5537L21.8137 10.8647C22.0769 10.0604 22.2226 9.20076 22.2227 8.3067L21.2227 8.30664ZM20.8633 10.5537L20.7142 11.5425C23.706 11.9935 26 14.5776 26 17.6953H27H28C28 13.5735 24.968 10.1611 21.0123 9.56488L20.8633 10.5537ZM27 17.6953L26 17.6953C25.9999 21.1315 23.2139 23.917 19.7773 23.917V24.917V25.917C24.3181 25.917 27.9999 22.2364 28 17.6953L27 17.6953ZM19.7773 24.917L19.7774 23.917C17.7426 23.9169 15.9364 22.9411 14.7995 21.4277L14 22.0283L13.2005 22.6289C14.6987 24.6235 17.0869 25.9168 19.7773 25.917L19.7773 24.917ZM14 22.0283L13.2005 21.4277C12.0636 22.9411 10.2574 23.9169 8.2226 23.917L8.22266 24.917L8.22271 25.917C10.9131 25.9168 13.3013 24.6235 14.7995 22.6289L14 22.0283ZM8.22266 24.917V23.917C4.78614 23.917 2.0001 21.1315 2 17.6953L1 17.6953L0 17.6953C0.000133216 22.2364 3.68187 25.917 8.22266 25.917V24.917ZM1 17.6953H2C2 14.5778 4.29354 11.9938 7.28492 11.5425L7.13574 10.5537L6.98656 9.5649C3.03137 10.1616 0 13.5739 0 17.6953H1ZM7.13574 10.5537L8.08616 10.2427C7.88665 9.63301 7.77738 8.98281 7.77734 8.30658L6.77734 8.30664L5.77734 8.3067C5.7774 9.19984 5.92192 10.0597 6.18533 10.8647L7.13574 10.5537ZM6.77734 8.30664H7.77734C7.77734 4.8702 10.5636 2.08398 14 2.08398V1.08398V0.0839844C9.45899 0.0839844 5.77734 3.76563 5.77734 8.30664H6.77734Z" fill="#FF33AA"/>
</svg>
