<svg width="30" height="28" viewBox="0 0 30 28" fill="none" xmlns="http://www.w3.org/2000/svg">
<path d="M15 2.08398C18.9887 2.08398 22.2227 5.31792 22.2227 9.30664C22.2226 10.0914 22.0948 10.8463 21.8633 11.5537C25.337 12.0773 28 15.0755 28 18.6953C27.9999 22.6839 24.766 25.917 20.7773 25.917C18.4148 25.9169 16.3176 24.7823 15 23.0283C13.6824 24.7823 11.5852 25.9169 9.22266 25.917C5.23401 25.917 2.00012 22.6839 2 18.6953C2 15.0759 4.66245 12.0777 8.13574 11.5537C7.90429 10.8464 7.77739 10.0913 7.77734 9.30664C7.77734 5.31792 11.0113 2.08398 15 2.08398Z" fill="white"/>
<path d="M22.2227 9.30664L23.7227 9.30673V9.30664H22.2227ZM21.8633 11.5537L20.4377 11.0872L19.8861 12.7726L21.6397 13.037L21.8633 11.5537ZM28 18.6953L29.5 18.6954V18.6953H28ZM20.7773 25.917L20.7773 27.417H20.7773V25.917ZM15 23.0283L16.1993 22.1274L15 20.5308L13.8007 22.1274L15 23.0283ZM9.22266 25.917V27.417H9.22274L9.22266 25.917ZM2 18.6953H0.5V18.6954L2 18.6953ZM8.13574 11.5537L8.35951 13.0369L10.1128 12.7724L9.56136 11.0872L8.13574 11.5537ZM7.77734 9.30664H6.27734V9.30673L7.77734 9.30664ZM15 2.08398V3.58398C18.1603 3.58398 20.7227 6.14634 20.7227 9.30664H22.2227H23.7227C23.7227 4.48949 19.8172 0.583984 15 0.583984V2.08398ZM22.2227 9.30664L20.7227 9.30655C20.7226 9.92744 20.6216 10.525 20.4377 11.0872L21.8633 11.5537L23.2889 12.0203C23.5679 11.1675 23.7226 10.2554 23.7227 9.30673L22.2227 9.30664ZM21.8633 11.5537L21.6397 13.037C24.3905 13.4516 26.5 15.8286 26.5 18.6953H28H29.5C29.5 14.3225 26.2835 10.703 22.0869 10.0705L21.8633 11.5537ZM28 18.6953L26.5 18.6953C26.4999 21.8553 23.9378 24.417 20.7773 24.417V25.917V27.417C25.5942 27.417 29.4999 23.5126 29.5 18.6954L28 18.6953ZM20.7773 25.917L20.7774 24.417C18.9066 24.4169 17.2458 23.5206 16.1993 22.1274L15 23.0283L13.8007 23.9292C15.3893 26.0441 17.9229 27.4168 20.7773 27.417L20.7773 25.917ZM15 23.0283L13.8007 22.1274C12.7542 23.5206 11.0934 24.4169 9.22257 24.417L9.22266 25.917L9.22274 27.417C12.0771 27.4168 14.6107 26.0441 16.1993 23.9292L15 23.0283ZM9.22266 25.917V24.417C6.06221 24.417 3.50009 21.8553 3.5 18.6953L2 18.6953L0.5 18.6954C0.500141 23.5126 4.4058 27.417 9.22266 27.417V25.917ZM2 18.6953H3.5C3.5 15.8288 5.60908 13.4519 8.35951 13.0369L8.13574 11.5537L7.91197 10.0705C3.71582 10.7036 0.5 14.3229 0.5 18.6953H2ZM8.13574 11.5537L9.56136 11.0872C9.37783 10.5263 9.27738 9.92856 9.27734 9.30655L7.77734 9.30664L6.27734 9.30673C6.2774 10.2541 6.43074 11.1664 6.71012 12.0202L8.13574 11.5537ZM7.77734 9.30664H9.27734C9.27734 6.14634 11.8397 3.58398 15 3.58398V2.08398V0.583984C10.1828 0.583984 6.27734 4.48949 6.27734 9.30664H7.77734Z" fill="#00AEEF"/>
</svg>
