<svg width="17" height="21" viewBox="0 0 17 21" fill="none" xmlns="http://www.w3.org/2000/svg">
<path d="M0 3.5455C0 1.8455 1.39091 0.45459 3.09091 0.45459H13.9091C15.6091 0.45459 17 1.8455 17 3.5455V15.9091C17 17.4546 15.4545 17.4546 15.4545 17.4546V19C15.4545 19.85 14.7591 20.5455 13.9091 20.5455C13.0591 20.5455 12.3636 19.85 12.3636 19V17.4546H4.63636V19C4.63636 19.85 3.94091 20.5455 3.09091 20.5455C2.24091 20.5455 1.54545 19.85 1.54545 19V17.4546C0 17.4546 0 15.9091 0 15.9091V3.5455ZM2.31818 5.09095C1.88545 5.09095 1.54545 5.43095 1.54545 5.86368V10.5C1.54545 10.9328 1.88545 11.2728 2.31818 11.2728H14.6818C15.1145 11.2728 15.4545 10.9328 15.4545 10.5V5.86368C15.4545 5.43095 15.1145 5.09095 14.6818 5.09095H2.31818ZM3.09091 12.8182C2.24091 12.8182 1.54545 13.5137 1.54545 14.3637C1.54545 15.2137 2.24091 15.9091 3.09091 15.9091C3.94091 15.9091 4.63636 15.2137 4.63636 14.3637C4.63636 13.5137 3.94091 12.8182 3.09091 12.8182ZM13.9091 12.8182C13.0591 12.8182 12.3636 13.5137 12.3636 14.3637C12.3636 15.2137 13.0591 15.9091 13.9091 15.9091C14.7591 15.9091 15.4545 15.2137 15.4545 14.3637C15.4545 13.5137 14.7591 12.8182 13.9091 12.8182ZM3.09091 2.77277C3.09091 3.2055 3.43091 3.5455 3.86364 3.5455H13.1364C13.5691 3.5455 13.9091 3.2055 13.9091 2.77277C13.9091 2.34004 13.5691 2.00004 13.1364 2.00004H3.86364C3.43091 2.00004 3.09091 2.34004 3.09091 2.77277Z" fill="#FF74FF"/>
</svg>
