<svg width="21" height="17" viewBox="0 0 21 17" fill="none" xmlns="http://www.w3.org/2000/svg">
<path fill-rule="evenodd" clip-rule="evenodd" d="M14.159 0.460938C14.7006 0.460956 15.2315 0.61001 15.6922 0.891403C16.1529 1.1728 16.5252 1.57541 16.7675 2.05415L18.115 4.71688C18.3522 4.62079 18.5855 4.51701 18.815 4.40554C19.0458 4.29162 19.3129 4.27298 19.5576 4.35371C19.8022 4.43444 20.0044 4.60794 20.1197 4.83603C20.235 5.06413 20.2538 5.32813 20.1721 5.56997C20.0905 5.81181 19.9149 6.01168 19.6842 6.1256C19.4505 6.22839 19.2155 6.32834 18.9793 6.42541L19.9136 8.27327C20.1164 8.67393 20.2219 9.11579 20.2218 9.56379V11.9921C20.2218 12.3976 20.1352 12.7987 19.9676 13.1689C19.8001 13.5392 19.5554 13.8703 19.2496 14.1407V15.3553C19.2496 15.7376 19.0959 16.1042 18.8224 16.3745C18.5489 16.6448 18.178 16.7967 17.7912 16.7967C17.4045 16.7967 17.0335 16.6448 16.76 16.3745C16.4865 16.1042 16.3329 15.7376 16.3329 15.3553V14.8748H4.66623V15.3553C4.66623 15.7376 4.51259 16.1042 4.2391 16.3745C3.96561 16.6448 3.59467 16.7967 3.2079 16.7967C2.82113 16.7967 2.45019 16.6448 2.1767 16.3745C1.90321 16.1042 1.74957 15.7376 1.74957 15.3553V14.1407C1.15262 13.6122 0.777344 12.8454 0.777344 11.9921V9.56283C0.777525 9.11548 0.88304 8.67431 1.08554 8.27423L2.01207 6.44078C1.77744 6.34341 1.54572 6.23867 1.31693 6.12656C1.08732 6.01116 0.912784 5.8112 0.830945 5.5698C0.749106 5.32839 0.766518 5.06487 0.879427 4.83603C0.936456 4.72306 1.01545 4.62229 1.1119 4.53951C1.20835 4.45672 1.32036 4.39353 1.44153 4.35355C1.5627 4.31357 1.69065 4.29759 1.81807 4.30651C1.9455 4.31543 2.06989 4.34908 2.18415 4.40554C2.41424 4.51765 2.64758 4.62143 2.88415 4.71688L4.23165 2.05511C4.47378 1.57619 4.84606 1.17338 5.30678 0.891811C5.7675 0.610243 6.29844 0.461045 6.84012 0.460938H14.159ZM6.12457 9.10927C5.73779 9.10927 5.36686 9.26113 5.09337 9.53144C4.81988 9.80176 4.66623 10.1684 4.66623 10.5507C4.66623 10.9329 4.81988 11.2996 5.09337 11.5699C5.36686 11.8402 5.73779 11.9921 6.12457 11.9921C6.51134 11.9921 6.88227 11.8402 7.15576 11.5699C7.42925 11.2996 7.5829 10.9329 7.5829 10.5507C7.5829 10.1684 7.42925 9.80176 7.15576 9.53144C6.88227 9.26113 6.51134 9.10927 6.12457 9.10927ZM14.8746 9.10927C14.4878 9.10927 14.1169 9.26113 13.8434 9.53144C13.5699 9.80176 13.4162 10.1684 13.4162 10.5507C13.4162 10.9329 13.5699 11.2996 13.8434 11.5699C14.1169 11.8402 14.4878 11.9921 14.8746 11.9921C15.2613 11.9921 15.6323 11.8402 15.9058 11.5699C16.1793 11.2996 16.3329 10.9329 16.3329 10.5507C16.3329 10.1684 16.1793 9.80176 15.9058 9.53144C15.6323 9.26113 15.2613 9.10927 14.8746 9.10927ZM14.159 2.38279H6.84012C6.6801 2.38277 6.52255 2.42178 6.38144 2.49638C6.24034 2.57097 6.12004 2.67884 6.03123 2.8104L5.97095 2.91418L4.73623 5.35301C6.24123 5.79888 8.26929 6.22649 10.4996 6.22649C12.5821 6.22649 14.4867 5.85365 15.9537 5.44142L16.2619 5.35301L15.0282 2.91418C14.9566 2.77275 14.8509 2.65095 14.7203 2.5596C14.5897 2.46824 14.4383 2.41015 14.2796 2.39048L14.16 2.38279H14.159Z" fill="#FF74FF"/>
</svg>
