<svg width="589" height="169" viewBox="0 0 589 169" fill="none" xmlns="http://www.w3.org/2000/svg">
<path d="M297.551 39.4391C299.295 42.9339 300.233 46.829 300.233 50.7318C300.233 63.0945 290.034 73.4404 277.561 73.4404C265.087 73.4404 254.889 63.0945 254.889 50.7318C254.889 46.8367 255.826 42.9339 257.571 39.4391H251V25.0673H269.783V17H285.346V25.0673H304.129V39.4468H297.558L297.551 39.4391ZM277.691 42.5336C273.395 42.5336 269.906 46.0285 269.906 50.3315C269.906 54.6346 273.395 58.1217 277.691 58.1217C281.988 58.1217 285.338 54.6269 285.338 50.3315C285.338 46.0361 281.988 42.5336 277.691 42.5336ZM329.215 141.982H276.085V96.5569H291.648V106.233H313.652V96.5569H329.215V141.982ZM313.652 127.602V119.273H291.648V127.602H313.652ZM339.275 55.4352H328.538V94.1398H312.975V22.3731H328.538V39.978H339.275V55.4352Z" fill="#FF74FF"/>
<path d="M412.8 70.4844H358.326V25.0673H373.889V56.1126H412.8V70.4921V70.4844ZM438.293 94.1397H422.73V22.373H438.293V94.132V94.1397Z" fill="#FF74FF"/>
<path d="M516.109 70.4844H461.635V25.0673H514.764V39.4468H477.198V56.1126H516.109V70.4921V70.4844ZM549.917 55.4352H539.181V141.512H523.618V22.373H539.181V39.9779H549.917V55.4352Z" fill="#FF74FF"/>
<path d="M588.437 141.535H570.191V123.53H588.437V141.535Z" fill="#FF74FF"/>
<path d="M231 142H0V128H231V142Z" fill="#FF74FF"/>
<mask id="path-6-outside-1_1205_1391" maskUnits="userSpaceOnUse" x="13" y="26" width="209" height="110" fill="black">
<rect fill="white" x="13" y="26" width="209" height="110"/>
<path d="M84.98 131.31C84.76 131.09 84.1 130.43 83.99 130.1L83.66 128.78V128.56C83.77 127.35 84.21 126.03 84.43 124.82C85.2 121.52 85.64 119.76 85.97 116.35C85.97 115.58 85.86 114.7 85.97 113.82L86.08 109.86C86.19 108.98 86.19 107.55 86.19 106.78L86.52 103.7L86.74 102.05L86.96 97.1L84.32 98.53L84.21 98.86C80.69 100.4 76.73 102.38 74.31 103.04C73.21 103.37 72.55 104.14 71.78 104.58C66.83 107.11 52.86 113.16 50.88 113.16C49.67 113.16 45.71 110.41 45.93 108.98C46.26 106.89 49.45 105.02 51.32 104.69L54.62 103.26L55.5 102.93L64.85 99.08L65.84 98.97C66.61 98.2 67.6 97.87 68.37 97.43L71.56 96.44C71.56 96.33 71.67 96.22 71.67 96C72 94.13 72.22 93.14 72.66 88.63L72.99 86.43L70.46 87.53C66.94 89.07 67.27 89.73 60.45 92.59C53.41 95.45 53.41 95.34 52.53 95.78C51.65 96.11 51.65 96.11 51.32 96.33L50.77 96.55L50.44 96.77L49.23 97.32L49.01 97.43L41.97 100.07C39.77 101.06 37.68 101.83 35.37 102.82C34.71 103.15 34.05 103.37 33.5 103.81C31.63 104.91 31.63 105.02 26.9 106.23C20.74 107.66 20.74 107.77 19.64 107.55C18.76 107.44 18.54 107.44 17.66 106.45L17 105.24V104.03L17.22 102.6C17.77 101.06 17.99 101.28 22.61 98.75C27.01 96 27.56 97.54 29.87 96.99C30.75 96.77 31.63 96.55 32.29 96.22L35.81 94.46C36.69 94.02 37.46 93.36 38.45 93.14C38.67 92.92 39 92.81 39.11 92.37C39.55 92.26 39.88 92.04 40.32 92.04C41.64 91.49 41.64 91.49 42.96 91.27C44.17 91.05 44.06 90.94 48.46 88.85C52.97 86.87 53.08 87.2 54.4 86.65C55.83 86.1 55.94 86.21 56.38 85.88L63.64 82.03C66.06 80.82 68.26 79.5 68.59 79.39C69.14 79.17 69.58 78.84 70.02 78.73C70.68 78.29 71.45 77.96 72.22 77.52C74.42 76.53 74.42 76.64 74.86 76.53L75.63 76.09L75.85 75.98L76.73 75.65L77.17 75.32C77.72 75.21 77.5 74.99 79.92 73.56C83.33 71.8 83.55 72.13 90.37 69.27C97.41 66.3 97.08 65.75 99.06 64.54C101.04 63.33 101.04 63.33 106.32 60.58C111.16 58.16 111.38 58.71 111.93 58.6C112.37 58.71 112.81 57.83 115.45 59.48C117.98 61.13 116.66 62.23 116.55 62.56V62.89C116.55 63.22 116.44 64.65 116.22 64.98C115.67 65.75 113.25 67.29 110.83 68.5C105.11 71.36 104.89 70.92 103.68 71.58C102.36 72.13 102.47 72.24 100.38 73.89C98.18 75.32 97.63 74.44 91.91 77.08C86.19 79.83 86.3 80.16 85.2 80.6C84.87 80.82 84.54 80.82 84.21 80.82L83.99 81.04C83.33 81.48 83 81.81 82.56 82.25L81.24 92.15C83.55 91.27 85.53 90.5 85.86 90.17L87.18 89.73L87.51 89.51L87.95 89.07H88.39C89.93 88.63 90.48 87.86 92.35 88.08C94.88 88.3 97.63 90.17 97.41 93.14C97.19 94.9 96.64 96.55 96.42 98.31L96.53 99.41L96.64 100.4C97.08 101.39 96.31 108.65 96.2 109.75C95.87 113.49 95.1 124.49 92.9 127.35L91.69 129L90.37 130.76C89.71 131.64 87.18 131.53 86.19 131.42L84.98 131.31ZM71.78 63C68.7 63.22 67.27 63.33 66.94 62.89L66.28 63.66L63.42 66.74L62.54 67.62C61.44 68.72 61.44 68.72 60.12 69.82C59.57 70.15 59.24 70.48 58.91 70.92C57.81 72.13 57.26 72.24 56.05 73.34C55.06 74 52.64 75.98 50 77.96C43.84 82.8 44.17 83.46 39.55 85.77C36.03 87.64 35.04 86.65 34.49 85.22C34.05 83.9 34.05 83.68 35.37 81.92C35.92 81.26 36.47 80.49 37.02 80.16L38.23 79.17C39.22 78.18 39.22 78.18 39.88 77.96L40.76 77.19L42.3 75.65C43.29 74.66 43.29 74.66 46.15 72.35C49.01 70.04 49.01 70.04 50.88 68.17C52.64 66.41 52.42 66.19 55.83 62.78C57.04 61.68 58.25 60.58 59.02 59.7L59.79 58.93C60.56 58.27 60.56 58.27 61.11 57.61C61.77 56.95 61.66 56.84 62.98 55.63L64.96 53.87L66.28 52C66.72 51.34 66.94 51.12 67.49 50.46L66.28 51.12C59.79 54.75 59.79 54.75 58.03 56.07C57.37 56.51 56.82 57.06 55.94 57.5C54.95 58.05 54.07 58.49 53.19 59.15C50.22 60.69 50.44 61.35 45.71 63.66C40.54 66.19 39.66 65.75 37.46 64.21C35.37 62.67 35.7 61.68 37.46 59.37C39.22 56.95 39.77 57.28 44.06 54.97L48.35 52.99C53.19 50.79 56.49 47.93 61.33 45.62L65.51 43.31C69.58 40.89 69.69 40.89 71.12 39.79L72.44 38.69L73.98 37.59C75.63 36.6 75.85 35.61 80.47 37.04C82.34 37.48 83.88 38.25 84.1 38.91C85.09 40.78 84.1 44.3 82.89 45.51L81.02 47.27L77.94 50.46C76.62 51.89 76.62 51.89 74.75 54.2L73.1 56.07C73.65 56.07 74.09 55.96 74.31 55.96C74.75 55.96 76.4 55.63 78.05 55.3L82.56 54.42L83.44 54.31L85.64 53.76C87.84 53.43 87.84 53.54 92.13 52.55C93.78 52.33 95.43 52 96.64 52.33C97.3 52.44 98.51 53.32 99.61 54.42C102.14 56.73 102.91 59.15 98.4 61.02C96.97 61.68 95.1 61.68 93.23 61.57C90.59 61.13 87.07 61.57 84.76 61.79C84.21 61.79 82.67 61.9 81.24 62.12C77.39 62.45 77.39 62.56 71.78 63ZM44.94 42.32C43.62 42.43 41.2 39.79 41.09 37.04C40.98 35.72 42.19 33.52 44.39 33.63C45.05 33.52 47.47 33.41 50.11 33.08C57.26 32.31 57.26 31.98 60.01 31.21C62.87 30.55 62.76 30.11 65.84 30C67.05 30 68.26 30.11 68.7 30.44C69.36 30.77 70.02 31.1 70.35 31.76C72 33.96 71.12 34.84 68.7 36.6C67.82 37.37 66.39 38.03 64.96 38.47C64.63 38.58 63.64 38.8 62.76 39.13C60.45 39.68 60.23 39.02 57.04 39.68C55.72 39.9 54.51 40.34 53.3 40.78C51.76 41.33 45.71 42.21 44.94 42.32Z"/>
<path d="M128.697 78.4C130.347 76.31 132.217 74.66 133.867 73.23L131.117 74.55C128.037 76.09 121.877 79.06 117.477 78.95C115.937 78.84 113.737 78.07 113.737 76.31V76.09C114.507 74.66 115.827 72.79 117.807 72.02C120.557 70.81 127.157 67.95 129.797 67.07C134.857 65.2 138.707 62.78 143.547 60.91C145.857 60.03 148.057 58.71 150.257 57.5L150.587 57.17C151.797 56.73 153.337 55.85 154.327 55.19C155.427 54.64 159.937 52.22 161.147 51.89C163.567 51.01 167.307 52.33 167.637 53.54C168.187 56.4 165.987 57.94 164.007 58.93C155.537 62.67 148.277 68.5 144.427 71.25C136.617 77.08 133.537 83.24 133.317 88.19C133.097 94.9 136.397 99.63 142.447 99.85C148.717 100.07 151.687 95.34 153.447 92.7C154.327 91.6 155.867 89.29 156.637 85C157.407 80.16 156.747 74.66 154.547 73.67C153.667 73.12 155.867 69.38 156.857 69.27C159.387 69.05 163.457 70.92 164.667 74C165.547 75.98 166.427 80.49 166.207 85.88C165.987 91.82 163.347 94.46 162.027 96.55C160.927 98.2 160.597 98.42 159.387 99.74C155.207 104.47 149.377 107 142.557 106.78C136.947 106.56 131.117 104.69 127.927 101.5C126.387 99.96 123.527 94.24 123.747 90.17C123.857 85.44 126.497 81.04 128.697 78.4ZM124.957 43.42C126.277 43.31 134.527 42.21 137.607 41.11L144.317 39.13C145.417 38.58 148.937 38.03 150.147 38.69C151.357 39.24 152.897 40.12 152.347 42.54C152.017 43.97 149.707 45.84 146.847 46.94C146.077 47.27 143.437 48.15 142.227 48.15C140.247 47.93 136.617 49.14 134.197 50.13C132.657 50.79 126.717 52 125.947 52C124.627 52.22 122.097 49.69 121.767 47.05C121.657 45.73 122.757 43.42 124.957 43.42ZM173.467 127.68C172.367 127.68 169.837 124.6 170.387 121.85C170.607 119.32 173.797 116.57 174.017 110.74C174.127 107.99 175.777 105.57 175.997 102.71C176.767 97.76 177.647 94.13 177.867 88.85L178.637 84.23L179.077 83.02V81.37L178.967 81.26C178.967 80.82 178.857 80.38 178.857 80.05L179.187 79.06L179.297 76.42L179.407 75.54L179.517 73.89L180.397 62.89C180.617 62.56 180.727 62.12 180.727 61.57C180.837 59.7 179.847 57.83 179.847 55.96L179.957 55.19L180.287 53.65L180.397 51.89L179.957 50.68V50.46L179.847 50.35C179.847 49.25 180.397 48.15 180.397 47.16L179.847 43.53L178.967 42.54C178.967 42.54 178.307 41.11 177.867 40.56L177.097 39.46L176.987 39.24C175.997 37.92 174.457 35.94 174.457 34.29C174.567 31.87 176.767 30.11 178.747 30.22C180.947 30.33 183.697 31.43 184.467 33.52C185.127 34.51 186.337 35.83 187.107 37.15L187.767 38.36L188.097 39.46C189.637 41.22 189.637 42.32 190.407 44.41C190.847 45.4 191.067 46.28 191.067 47.27L190.847 54.75L190.407 63.66L190.297 67.95C190.187 69.82 189.857 71.8 189.417 73.67L188.867 75.65C188.867 76.86 188.647 77.41 188.647 78.62V78.73C189.087 78.62 189.417 78.29 189.857 77.85C190.077 77.52 190.627 77.19 191.067 76.97V76.75L194.257 73.67C195.247 72.9 196.567 72.13 197.667 71.36V71.25L198.107 70.26L199.977 68.39C199.977 68.39 207.237 61.9 209.657 60.8L210.757 59.7C211.307 59.26 212.957 59.15 213.617 59.15C215.047 59.26 217.247 61.46 217.137 62.89V63.11C216.037 69.05 211.747 69.93 208.337 72.57L208.227 72.9C207.347 73.56 206.137 74.22 204.927 74.77L202.947 76.2V76.31L201.627 77.74L201.297 77.85L200.087 78.95C198.657 79.94 197.887 81.59 196.237 82.58L195.687 82.8C194.807 83.35 192.387 86.1 191.837 86.1C191.397 86.43 191.177 87.2 190.957 87.86C190.517 89.07 188.537 90.28 187.877 91.6L186.777 92.59V92.81C186.227 96.77 184.137 108.98 182.487 112.39C181.607 114.26 180.617 121.3 179.847 121.85V122.62L179.077 124.6L179.187 124.49C177.867 126.69 175.997 127.79 173.467 127.68Z"/>
</mask>
<path d="M84.98 131.31C84.76 131.09 84.1 130.43 83.99 130.1L83.66 128.78V128.56C83.77 127.35 84.21 126.03 84.43 124.82C85.2 121.52 85.64 119.76 85.97 116.35C85.97 115.58 85.86 114.7 85.97 113.82L86.08 109.86C86.19 108.98 86.19 107.55 86.19 106.78L86.52 103.7L86.74 102.05L86.96 97.1L84.32 98.53L84.21 98.86C80.69 100.4 76.73 102.38 74.31 103.04C73.21 103.37 72.55 104.14 71.78 104.58C66.83 107.11 52.86 113.16 50.88 113.16C49.67 113.16 45.71 110.41 45.93 108.98C46.26 106.89 49.45 105.02 51.32 104.69L54.62 103.26L55.5 102.93L64.85 99.08L65.84 98.97C66.61 98.2 67.6 97.87 68.37 97.43L71.56 96.44C71.56 96.33 71.67 96.22 71.67 96C72 94.13 72.22 93.14 72.66 88.63L72.99 86.43L70.46 87.53C66.94 89.07 67.27 89.73 60.45 92.59C53.41 95.45 53.41 95.34 52.53 95.78C51.65 96.11 51.65 96.11 51.32 96.33L50.77 96.55L50.44 96.77L49.23 97.32L49.01 97.43L41.97 100.07C39.77 101.06 37.68 101.83 35.37 102.82C34.71 103.15 34.05 103.37 33.5 103.81C31.63 104.91 31.63 105.02 26.9 106.23C20.74 107.66 20.74 107.77 19.64 107.55C18.76 107.44 18.54 107.44 17.66 106.45L17 105.24V104.03L17.22 102.6C17.77 101.06 17.99 101.28 22.61 98.75C27.01 96 27.56 97.54 29.87 96.99C30.75 96.77 31.63 96.55 32.29 96.22L35.81 94.46C36.69 94.02 37.46 93.36 38.45 93.14C38.67 92.92 39 92.81 39.11 92.37C39.55 92.26 39.88 92.04 40.32 92.04C41.64 91.49 41.64 91.49 42.96 91.27C44.17 91.05 44.06 90.94 48.46 88.85C52.97 86.87 53.08 87.2 54.4 86.65C55.83 86.1 55.94 86.21 56.38 85.88L63.64 82.03C66.06 80.82 68.26 79.5 68.59 79.39C69.14 79.17 69.58 78.84 70.02 78.73C70.68 78.29 71.45 77.96 72.22 77.52C74.42 76.53 74.42 76.64 74.86 76.53L75.63 76.09L75.85 75.98L76.73 75.65L77.17 75.32C77.72 75.21 77.5 74.99 79.92 73.56C83.33 71.8 83.55 72.13 90.37 69.27C97.41 66.3 97.08 65.75 99.06 64.54C101.04 63.33 101.04 63.33 106.32 60.58C111.16 58.16 111.38 58.71 111.93 58.6C112.37 58.71 112.81 57.83 115.45 59.48C117.98 61.13 116.66 62.23 116.55 62.56V62.89C116.55 63.22 116.44 64.65 116.22 64.98C115.67 65.75 113.25 67.29 110.83 68.5C105.11 71.36 104.89 70.92 103.68 71.58C102.36 72.13 102.47 72.24 100.38 73.89C98.18 75.32 97.63 74.44 91.91 77.08C86.19 79.83 86.3 80.16 85.2 80.6C84.87 80.82 84.54 80.82 84.21 80.82L83.99 81.04C83.33 81.48 83 81.81 82.56 82.25L81.24 92.15C83.55 91.27 85.53 90.5 85.86 90.17L87.18 89.73L87.51 89.51L87.95 89.07H88.39C89.93 88.63 90.48 87.86 92.35 88.08C94.88 88.3 97.63 90.17 97.41 93.14C97.19 94.9 96.64 96.55 96.42 98.31L96.53 99.41L96.64 100.4C97.08 101.39 96.31 108.65 96.2 109.75C95.87 113.49 95.1 124.49 92.9 127.35L91.69 129L90.37 130.76C89.71 131.64 87.18 131.53 86.19 131.42L84.98 131.31ZM71.78 63C68.7 63.22 67.27 63.33 66.94 62.89L66.28 63.66L63.42 66.74L62.54 67.62C61.44 68.72 61.44 68.72 60.12 69.82C59.57 70.15 59.24 70.48 58.91 70.92C57.81 72.13 57.26 72.24 56.05 73.34C55.06 74 52.64 75.98 50 77.96C43.84 82.8 44.17 83.46 39.55 85.77C36.03 87.64 35.04 86.65 34.49 85.22C34.05 83.9 34.05 83.68 35.37 81.92C35.92 81.26 36.47 80.49 37.02 80.16L38.23 79.17C39.22 78.18 39.22 78.18 39.88 77.96L40.76 77.19L42.3 75.65C43.29 74.66 43.29 74.66 46.15 72.35C49.01 70.04 49.01 70.04 50.88 68.17C52.64 66.41 52.42 66.19 55.83 62.78C57.04 61.68 58.25 60.58 59.02 59.7L59.79 58.93C60.56 58.27 60.56 58.27 61.11 57.61C61.77 56.95 61.66 56.84 62.98 55.63L64.96 53.87L66.28 52C66.72 51.34 66.94 51.12 67.49 50.46L66.28 51.12C59.79 54.75 59.79 54.75 58.03 56.07C57.37 56.51 56.82 57.06 55.94 57.5C54.95 58.05 54.07 58.49 53.19 59.15C50.22 60.69 50.44 61.35 45.71 63.66C40.54 66.19 39.66 65.75 37.46 64.21C35.37 62.67 35.7 61.68 37.46 59.37C39.22 56.95 39.77 57.28 44.06 54.97L48.35 52.99C53.19 50.79 56.49 47.93 61.33 45.62L65.51 43.31C69.58 40.89 69.69 40.89 71.12 39.79L72.44 38.69L73.98 37.59C75.63 36.6 75.85 35.61 80.47 37.04C82.34 37.48 83.88 38.25 84.1 38.91C85.09 40.78 84.1 44.3 82.89 45.51L81.02 47.27L77.94 50.46C76.62 51.89 76.62 51.89 74.75 54.2L73.1 56.07C73.65 56.07 74.09 55.96 74.31 55.96C74.75 55.96 76.4 55.63 78.05 55.3L82.56 54.42L83.44 54.31L85.64 53.76C87.84 53.43 87.84 53.54 92.13 52.55C93.78 52.33 95.43 52 96.64 52.33C97.3 52.44 98.51 53.32 99.61 54.42C102.14 56.73 102.91 59.15 98.4 61.02C96.97 61.68 95.1 61.68 93.23 61.57C90.59 61.13 87.07 61.57 84.76 61.79C84.21 61.79 82.67 61.9 81.24 62.12C77.39 62.45 77.39 62.56 71.78 63ZM44.94 42.32C43.62 42.43 41.2 39.79 41.09 37.04C40.98 35.72 42.19 33.52 44.39 33.63C45.05 33.52 47.47 33.41 50.11 33.08C57.26 32.31 57.26 31.98 60.01 31.21C62.87 30.55 62.76 30.11 65.84 30C67.05 30 68.26 30.11 68.7 30.44C69.36 30.77 70.02 31.1 70.35 31.76C72 33.96 71.12 34.84 68.7 36.6C67.82 37.37 66.39 38.03 64.96 38.47C64.63 38.58 63.64 38.8 62.76 39.13C60.45 39.68 60.23 39.02 57.04 39.68C55.72 39.9 54.51 40.34 53.3 40.78C51.76 41.33 45.71 42.21 44.94 42.32Z" fill="#FF74FF"/>
<path d="M128.697 78.4C130.347 76.31 132.217 74.66 133.867 73.23L131.117 74.55C128.037 76.09 121.877 79.06 117.477 78.95C115.937 78.84 113.737 78.07 113.737 76.31V76.09C114.507 74.66 115.827 72.79 117.807 72.02C120.557 70.81 127.157 67.95 129.797 67.07C134.857 65.2 138.707 62.78 143.547 60.91C145.857 60.03 148.057 58.71 150.257 57.5L150.587 57.17C151.797 56.73 153.337 55.85 154.327 55.19C155.427 54.64 159.937 52.22 161.147 51.89C163.567 51.01 167.307 52.33 167.637 53.54C168.187 56.4 165.987 57.94 164.007 58.93C155.537 62.67 148.277 68.5 144.427 71.25C136.617 77.08 133.537 83.24 133.317 88.19C133.097 94.9 136.397 99.63 142.447 99.85C148.717 100.07 151.687 95.34 153.447 92.7C154.327 91.6 155.867 89.29 156.637 85C157.407 80.16 156.747 74.66 154.547 73.67C153.667 73.12 155.867 69.38 156.857 69.27C159.387 69.05 163.457 70.92 164.667 74C165.547 75.98 166.427 80.49 166.207 85.88C165.987 91.82 163.347 94.46 162.027 96.55C160.927 98.2 160.597 98.42 159.387 99.74C155.207 104.47 149.377 107 142.557 106.78C136.947 106.56 131.117 104.69 127.927 101.5C126.387 99.96 123.527 94.24 123.747 90.17C123.857 85.44 126.497 81.04 128.697 78.4ZM124.957 43.42C126.277 43.31 134.527 42.21 137.607 41.11L144.317 39.13C145.417 38.58 148.937 38.03 150.147 38.69C151.357 39.24 152.897 40.12 152.347 42.54C152.017 43.97 149.707 45.84 146.847 46.94C146.077 47.27 143.437 48.15 142.227 48.15C140.247 47.93 136.617 49.14 134.197 50.13C132.657 50.79 126.717 52 125.947 52C124.627 52.22 122.097 49.69 121.767 47.05C121.657 45.73 122.757 43.42 124.957 43.42ZM173.467 127.68C172.367 127.68 169.837 124.6 170.387 121.85C170.607 119.32 173.797 116.57 174.017 110.74C174.127 107.99 175.777 105.57 175.997 102.71C176.767 97.76 177.647 94.13 177.867 88.85L178.637 84.23L179.077 83.02V81.37L178.967 81.26C178.967 80.82 178.857 80.38 178.857 80.05L179.187 79.06L179.297 76.42L179.407 75.54L179.517 73.89L180.397 62.89C180.617 62.56 180.727 62.12 180.727 61.57C180.837 59.7 179.847 57.83 179.847 55.96L179.957 55.19L180.287 53.65L180.397 51.89L179.957 50.68V50.46L179.847 50.35C179.847 49.25 180.397 48.15 180.397 47.16L179.847 43.53L178.967 42.54C178.967 42.54 178.307 41.11 177.867 40.56L177.097 39.46L176.987 39.24C175.997 37.92 174.457 35.94 174.457 34.29C174.567 31.87 176.767 30.11 178.747 30.22C180.947 30.33 183.697 31.43 184.467 33.52C185.127 34.51 186.337 35.83 187.107 37.15L187.767 38.36L188.097 39.46C189.637 41.22 189.637 42.32 190.407 44.41C190.847 45.4 191.067 46.28 191.067 47.27L190.847 54.75L190.407 63.66L190.297 67.95C190.187 69.82 189.857 71.8 189.417 73.67L188.867 75.65C188.867 76.86 188.647 77.41 188.647 78.62V78.73C189.087 78.62 189.417 78.29 189.857 77.85C190.077 77.52 190.627 77.19 191.067 76.97V76.75L194.257 73.67C195.247 72.9 196.567 72.13 197.667 71.36V71.25L198.107 70.26L199.977 68.39C199.977 68.39 207.237 61.9 209.657 60.8L210.757 59.7C211.307 59.26 212.957 59.15 213.617 59.15C215.047 59.26 217.247 61.46 217.137 62.89V63.11C216.037 69.05 211.747 69.93 208.337 72.57L208.227 72.9C207.347 73.56 206.137 74.22 204.927 74.77L202.947 76.2V76.31L201.627 77.74L201.297 77.85L200.087 78.95C198.657 79.94 197.887 81.59 196.237 82.58L195.687 82.8C194.807 83.35 192.387 86.1 191.837 86.1C191.397 86.43 191.177 87.2 190.957 87.86C190.517 89.07 188.537 90.28 187.877 91.6L186.777 92.59V92.81C186.227 96.77 184.137 108.98 182.487 112.39C181.607 114.26 180.617 121.3 179.847 121.85V122.62L179.077 124.6L179.187 124.49C177.867 126.69 175.997 127.79 173.467 127.68Z" fill="#FF74FF"/>
<path d="M84.98 131.31C84.76 131.09 84.1 130.43 83.99 130.1L83.66 128.78V128.56C83.77 127.35 84.21 126.03 84.43 124.82C85.2 121.52 85.64 119.76 85.97 116.35C85.97 115.58 85.86 114.7 85.97 113.82L86.08 109.86C86.19 108.98 86.19 107.55 86.19 106.78L86.52 103.7L86.74 102.05L86.96 97.1L84.32 98.53L84.21 98.86C80.69 100.4 76.73 102.38 74.31 103.04C73.21 103.37 72.55 104.14 71.78 104.58C66.83 107.11 52.86 113.16 50.88 113.16C49.67 113.16 45.71 110.41 45.93 108.98C46.26 106.89 49.45 105.02 51.32 104.69L54.62 103.26L55.5 102.93L64.85 99.08L65.84 98.97C66.61 98.2 67.6 97.87 68.37 97.43L71.56 96.44C71.56 96.33 71.67 96.22 71.67 96C72 94.13 72.22 93.14 72.66 88.63L72.99 86.43L70.46 87.53C66.94 89.07 67.27 89.73 60.45 92.59C53.41 95.45 53.41 95.34 52.53 95.78C51.65 96.11 51.65 96.11 51.32 96.33L50.77 96.55L50.44 96.77L49.23 97.32L49.01 97.43L41.97 100.07C39.77 101.06 37.68 101.83 35.37 102.82C34.71 103.15 34.05 103.37 33.5 103.81C31.63 104.91 31.63 105.02 26.9 106.23C20.74 107.66 20.74 107.77 19.64 107.55C18.76 107.44 18.54 107.44 17.66 106.45L17 105.24V104.03L17.22 102.6C17.77 101.06 17.99 101.28 22.61 98.75C27.01 96 27.56 97.54 29.87 96.99C30.75 96.77 31.63 96.55 32.29 96.22L35.81 94.46C36.69 94.02 37.46 93.36 38.45 93.14C38.67 92.92 39 92.81 39.11 92.37C39.55 92.26 39.88 92.04 40.32 92.04C41.64 91.49 41.64 91.49 42.96 91.27C44.17 91.05 44.06 90.94 48.46 88.85C52.97 86.87 53.08 87.2 54.4 86.65C55.83 86.1 55.94 86.21 56.38 85.88L63.64 82.03C66.06 80.82 68.26 79.5 68.59 79.39C69.14 79.17 69.58 78.84 70.02 78.73C70.68 78.29 71.45 77.96 72.22 77.52C74.42 76.53 74.42 76.64 74.86 76.53L75.63 76.09L75.85 75.98L76.73 75.65L77.17 75.32C77.72 75.21 77.5 74.99 79.92 73.56C83.33 71.8 83.55 72.13 90.37 69.27C97.41 66.3 97.08 65.75 99.06 64.54C101.04 63.33 101.04 63.33 106.32 60.58C111.16 58.16 111.38 58.71 111.93 58.6C112.37 58.71 112.81 57.83 115.45 59.48C117.98 61.13 116.66 62.23 116.55 62.56V62.89C116.55 63.22 116.44 64.65 116.22 64.98C115.67 65.75 113.25 67.29 110.83 68.5C105.11 71.36 104.89 70.92 103.68 71.58C102.36 72.13 102.47 72.24 100.38 73.89C98.18 75.32 97.63 74.44 91.91 77.08C86.19 79.83 86.3 80.16 85.2 80.6C84.87 80.82 84.54 80.82 84.21 80.82L83.99 81.04C83.33 81.48 83 81.81 82.56 82.25L81.24 92.15C83.55 91.27 85.53 90.5 85.86 90.17L87.18 89.73L87.51 89.51L87.95 89.07H88.39C89.93 88.63 90.48 87.86 92.35 88.08C94.88 88.3 97.63 90.17 97.41 93.14C97.19 94.9 96.64 96.55 96.42 98.31L96.53 99.41L96.64 100.4C97.08 101.39 96.31 108.65 96.2 109.75C95.87 113.49 95.1 124.49 92.9 127.35L91.69 129L90.37 130.76C89.71 131.64 87.18 131.53 86.19 131.42L84.98 131.31ZM71.78 63C68.7 63.22 67.27 63.33 66.94 62.89L66.28 63.66L63.42 66.74L62.54 67.62C61.44 68.72 61.44 68.72 60.12 69.82C59.57 70.15 59.24 70.48 58.91 70.92C57.81 72.13 57.26 72.24 56.05 73.34C55.06 74 52.64 75.98 50 77.96C43.84 82.8 44.17 83.46 39.55 85.77C36.03 87.64 35.04 86.65 34.49 85.22C34.05 83.9 34.05 83.68 35.37 81.92C35.92 81.26 36.47 80.49 37.02 80.16L38.23 79.17C39.22 78.18 39.22 78.18 39.88 77.96L40.76 77.19L42.3 75.65C43.29 74.66 43.29 74.66 46.15 72.35C49.01 70.04 49.01 70.04 50.88 68.17C52.64 66.41 52.42 66.19 55.83 62.78C57.04 61.68 58.25 60.58 59.02 59.7L59.79 58.93C60.56 58.27 60.56 58.27 61.11 57.61C61.77 56.95 61.66 56.84 62.98 55.63L64.96 53.87L66.28 52C66.72 51.34 66.94 51.12 67.49 50.46L66.28 51.12C59.79 54.75 59.79 54.75 58.03 56.07C57.37 56.51 56.82 57.06 55.94 57.5C54.95 58.05 54.07 58.49 53.19 59.15C50.22 60.69 50.44 61.35 45.71 63.66C40.54 66.19 39.66 65.75 37.46 64.21C35.37 62.67 35.7 61.68 37.46 59.37C39.22 56.95 39.77 57.28 44.06 54.97L48.35 52.99C53.19 50.79 56.49 47.93 61.33 45.62L65.51 43.31C69.58 40.89 69.69 40.89 71.12 39.79L72.44 38.69L73.98 37.59C75.63 36.6 75.85 35.61 80.47 37.04C82.34 37.48 83.88 38.25 84.1 38.91C85.09 40.78 84.1 44.3 82.89 45.51L81.02 47.27L77.94 50.46C76.62 51.89 76.62 51.89 74.75 54.2L73.1 56.07C73.65 56.07 74.09 55.96 74.31 55.96C74.75 55.96 76.4 55.63 78.05 55.3L82.56 54.42L83.44 54.31L85.64 53.76C87.84 53.43 87.84 53.54 92.13 52.55C93.78 52.33 95.43 52 96.64 52.33C97.3 52.44 98.51 53.32 99.61 54.42C102.14 56.73 102.91 59.15 98.4 61.02C96.97 61.68 95.1 61.68 93.23 61.57C90.59 61.13 87.07 61.57 84.76 61.79C84.21 61.79 82.67 61.9 81.24 62.12C77.39 62.45 77.39 62.56 71.78 63ZM44.94 42.32C43.62 42.43 41.2 39.79 41.09 37.04C40.98 35.72 42.19 33.52 44.39 33.63C45.05 33.52 47.47 33.41 50.11 33.08C57.26 32.31 57.26 31.98 60.01 31.21C62.87 30.55 62.76 30.11 65.84 30C67.05 30 68.26 30.11 68.7 30.44C69.36 30.77 70.02 31.1 70.35 31.76C72 33.96 71.12 34.84 68.7 36.6C67.82 37.37 66.39 38.03 64.96 38.47C64.63 38.58 63.64 38.8 62.76 39.13C60.45 39.68 60.23 39.02 57.04 39.68C55.72 39.9 54.51 40.34 53.3 40.78C51.76 41.33 45.71 42.21 44.94 42.32Z" stroke="white" stroke-width="8" mask="url(#path-6-outside-1_1205_1391)"/>
<path d="M128.697 78.4C130.347 76.31 132.217 74.66 133.867 73.23L131.117 74.55C128.037 76.09 121.877 79.06 117.477 78.95C115.937 78.84 113.737 78.07 113.737 76.31V76.09C114.507 74.66 115.827 72.79 117.807 72.02C120.557 70.81 127.157 67.95 129.797 67.07C134.857 65.2 138.707 62.78 143.547 60.91C145.857 60.03 148.057 58.71 150.257 57.5L150.587 57.17C151.797 56.73 153.337 55.85 154.327 55.19C155.427 54.64 159.937 52.22 161.147 51.89C163.567 51.01 167.307 52.33 167.637 53.54C168.187 56.4 165.987 57.94 164.007 58.93C155.537 62.67 148.277 68.5 144.427 71.25C136.617 77.08 133.537 83.24 133.317 88.19C133.097 94.9 136.397 99.63 142.447 99.85C148.717 100.07 151.687 95.34 153.447 92.7C154.327 91.6 155.867 89.29 156.637 85C157.407 80.16 156.747 74.66 154.547 73.67C153.667 73.12 155.867 69.38 156.857 69.27C159.387 69.05 163.457 70.92 164.667 74C165.547 75.98 166.427 80.49 166.207 85.88C165.987 91.82 163.347 94.46 162.027 96.55C160.927 98.2 160.597 98.42 159.387 99.74C155.207 104.47 149.377 107 142.557 106.78C136.947 106.56 131.117 104.69 127.927 101.5C126.387 99.96 123.527 94.24 123.747 90.17C123.857 85.44 126.497 81.04 128.697 78.4ZM124.957 43.42C126.277 43.31 134.527 42.21 137.607 41.11L144.317 39.13C145.417 38.58 148.937 38.03 150.147 38.69C151.357 39.24 152.897 40.12 152.347 42.54C152.017 43.97 149.707 45.84 146.847 46.94C146.077 47.27 143.437 48.15 142.227 48.15C140.247 47.93 136.617 49.14 134.197 50.13C132.657 50.79 126.717 52 125.947 52C124.627 52.22 122.097 49.69 121.767 47.05C121.657 45.73 122.757 43.42 124.957 43.42ZM173.467 127.68C172.367 127.68 169.837 124.6 170.387 121.85C170.607 119.32 173.797 116.57 174.017 110.74C174.127 107.99 175.777 105.57 175.997 102.71C176.767 97.76 177.647 94.13 177.867 88.85L178.637 84.23L179.077 83.02V81.37L178.967 81.26C178.967 80.82 178.857 80.38 178.857 80.05L179.187 79.06L179.297 76.42L179.407 75.54L179.517 73.89L180.397 62.89C180.617 62.56 180.727 62.12 180.727 61.57C180.837 59.7 179.847 57.83 179.847 55.96L179.957 55.19L180.287 53.65L180.397 51.89L179.957 50.68V50.46L179.847 50.35C179.847 49.25 180.397 48.15 180.397 47.16L179.847 43.53L178.967 42.54C178.967 42.54 178.307 41.11 177.867 40.56L177.097 39.46L176.987 39.24C175.997 37.92 174.457 35.94 174.457 34.29C174.567 31.87 176.767 30.11 178.747 30.22C180.947 30.33 183.697 31.43 184.467 33.52C185.127 34.51 186.337 35.83 187.107 37.15L187.767 38.36L188.097 39.46C189.637 41.22 189.637 42.32 190.407 44.41C190.847 45.4 191.067 46.28 191.067 47.27L190.847 54.75L190.407 63.66L190.297 67.95C190.187 69.82 189.857 71.8 189.417 73.67L188.867 75.65C188.867 76.86 188.647 77.41 188.647 78.62V78.73C189.087 78.62 189.417 78.29 189.857 77.85C190.077 77.52 190.627 77.19 191.067 76.97V76.75L194.257 73.67C195.247 72.9 196.567 72.13 197.667 71.36V71.25L198.107 70.26L199.977 68.39C199.977 68.39 207.237 61.9 209.657 60.8L210.757 59.7C211.307 59.26 212.957 59.15 213.617 59.15C215.047 59.26 217.247 61.46 217.137 62.89V63.11C216.037 69.05 211.747 69.93 208.337 72.57L208.227 72.9C207.347 73.56 206.137 74.22 204.927 74.77L202.947 76.2V76.31L201.627 77.74L201.297 77.85L200.087 78.95C198.657 79.94 197.887 81.59 196.237 82.58L195.687 82.8C194.807 83.35 192.387 86.1 191.837 86.1C191.397 86.43 191.177 87.2 190.957 87.86C190.517 89.07 188.537 90.28 187.877 91.6L186.777 92.59V92.81C186.227 96.77 184.137 108.98 182.487 112.39C181.607 114.26 180.617 121.3 179.847 121.85V122.62L179.077 124.6L179.187 124.49C177.867 126.69 175.997 127.79 173.467 127.68Z" stroke="white" stroke-width="8" mask="url(#path-6-outside-1_1205_1391)"/>
</svg>
