<svg width="320" height="195" viewBox="0 0 320 195" fill="none" xmlns="http://www.w3.org/2000/svg">
<g clip-path="url(#clip0_924_4846)">
<path d="M108.698 16.2824C109.964 18.8183 110.644 21.6446 110.644 24.4766C110.644 33.4473 103.244 40.9545 94.1931 40.9545C85.142 40.9545 77.7417 33.4473 77.7417 24.4766C77.7417 21.6502 78.4221 18.8183 79.688 16.2824H74.9199V5.85383H88.5494V0H99.8423V5.85383H113.472V16.2879H108.704L108.698 16.2824ZM94.2879 18.5278C91.1705 18.5278 88.6386 21.0637 88.6386 24.1861C88.6386 27.3086 91.1705 29.8389 94.2879 29.8389C97.4053 29.8389 99.8367 27.303 99.8367 24.1861C99.8367 21.0693 97.4053 18.5278 94.2879 18.5278ZM131.674 90.6897H93.1223V57.7284H104.415V64.7496H120.381V57.7284H131.674V90.6897ZM120.381 80.2555V74.2118H104.415V80.2555H120.381ZM138.974 27.8895H131.183V55.9744H119.891V3.89883H131.183V16.6734H138.974V27.8895Z" fill="#222222"/>
<path d="M192.327 38.8096H152.799V5.85393H164.092V28.3811H192.327V38.8152V38.8096ZM210.825 55.9745H199.532V3.89893H210.825V55.9689V55.9745Z" fill="#222222"/>
<path d="M267.288 38.8096H227.76V5.85393H266.312V16.288H239.053V28.3811H267.288V38.8152V38.8096ZM291.82 27.8896H284.029V90.349H272.736V3.89893H284.029V16.6735H291.82V27.8896Z" fill="#222222"/>
<path d="M319.77 90.3658H306.531V77.3008H319.77V90.3658Z" fill="#222222"/>
<path d="M65.2038 90.5891H0.285156V80.2332H65.2038V90.5891Z" fill="#222222"/>
</g>
<path d="M13.84 148.59H15.5V165.59H13.84V148.59ZM7.66 154.29H10.32V148.99H11.92V164.71H10.32V155.71H7.66V154.29ZM1.76 160.75L0.4 159.91L3.18 155.39C3.86 154.29 4.02 153.45 4.02 152.53V151.59H1.02V150.15H8.68V151.59H5.66V152.53C5.66 153.45 5.82 154.29 6.5 155.39L9.28 159.91L7.92 160.75L5.14 156.23L4.84 155.69L4.54 156.23L1.76 160.75ZM26.6602 164.83C23.9802 164.83 21.9202 162.99 21.9202 160.57H23.5802C23.5802 162.13 24.9202 163.35 26.6602 163.35C28.5202 163.35 29.9602 161.97 29.9602 160.21C29.9602 158.51 28.5402 157.17 26.7002 157.17H25.9202L24.7402 156.09L28.8002 151.69H22.6002V150.21H30.7202L30.9202 151.69L27.2602 155.69C29.7402 155.95 31.6002 157.83 31.6002 160.19C31.6002 162.81 29.4402 164.83 26.6602 164.83ZM36.457 164.85L34.917 164.21L40.497 151.69H33.597V150.21H42.117L42.317 151.69L36.457 164.85ZM54.7903 160.85V162.25H43.7503V160.85H48.4303V159.19C46.4503 158.83 45.1303 157.27 45.1303 155.19C45.1303 154.15 45.6103 153.25 46.2703 152.55H44.3503V151.13H48.5703V148.95H50.1303V151.13H54.3103V152.55H52.3703C53.0503 153.25 53.5103 154.15 53.5103 155.19C53.5103 157.27 52.1703 158.85 50.1903 159.19V160.85H54.7903ZM49.3303 157.79C50.8503 157.79 51.9103 156.71 51.9103 155.19C51.9103 153.65 50.8503 152.59 49.3303 152.59C47.7903 152.59 46.7103 153.65 46.7103 155.19C46.7103 156.71 47.7903 157.79 49.3303 157.79ZM56.1503 165.61V148.61H57.8903V165.61H56.1503ZM65.0505 163.25C67.9305 160.47 72.1505 157.19 72.1505 154.61C72.1505 152.83 71.0105 151.57 69.3905 151.57C68.1905 151.57 66.9705 152.45 66.4105 153.73L64.9105 153.07C65.6905 151.31 67.5505 150.07 69.3905 150.07C71.9905 150.07 73.8105 151.95 73.8105 154.61C73.8105 157.67 70.1105 160.73 67.3505 163.25H74.0505V164.73H65.2505L65.0505 163.25ZM81.8195 163.37C84.4995 163.37 86.1795 161.09 86.1795 157.47C86.1795 153.85 84.4995 151.57 81.8195 151.57C79.1195 151.57 77.4195 153.85 77.4195 157.47C77.4195 161.09 79.1195 163.37 81.8195 163.37ZM81.8195 164.85C78.0995 164.85 75.7595 161.99 75.7595 157.47C75.7595 152.95 78.0995 150.11 81.8195 150.11C85.5195 150.11 87.8395 152.95 87.8395 157.47C87.8395 161.99 85.5195 164.85 81.8195 164.85ZM89.6997 163.25C92.5797 160.47 96.7997 157.19 96.7997 154.61C96.7997 152.83 95.6597 151.57 94.0397 151.57C92.8397 151.57 91.6197 152.45 91.0597 153.73L89.5597 153.07C90.3397 151.31 92.1997 150.07 94.0397 150.07C96.6397 150.07 98.4597 151.95 98.4597 154.61C98.4597 157.67 94.7597 160.73 91.9997 163.25H98.6997V164.73H89.8997L89.6997 163.25ZM102.749 157.99L101.089 157.75L101.569 150.21H108.949V151.69H103.169L102.889 155.85C103.609 155.47 104.429 155.25 105.169 155.25C108.069 155.25 110.129 157.23 110.129 160.03C110.129 162.89 108.069 164.91 105.169 164.91C102.909 164.91 100.949 163.39 100.449 161.23L102.069 160.85C102.389 162.31 103.669 163.33 105.169 163.33C107.109 163.33 108.469 161.97 108.469 160.03C108.469 158.15 107.109 156.83 105.169 156.83C104.349 156.83 103.349 157.31 102.749 157.99ZM115.574 155.51H127.074V150.63H117.714V149.19H128.834V155.51H131.514V156.93H124.394V159.69H129.054V166.21H127.314V161.11H117.794V159.69H122.674V156.93H115.574V155.51ZM135.845 165.97V159.15H137.545V161.15H144.965V159.15H146.665V165.97H135.845ZM137.545 164.55H144.965V162.51H137.545V164.55ZM133.385 152.87H139.525V150.85H133.385V149.45H141.245V154.25H135.105V156.27H142.185V157.71H133.385V152.87ZM144.925 158.29V148.59H146.665V158.29H144.925ZM148.876 159.01H164.816V160.41H157.696V166.21H155.976V160.41H148.876V159.01ZM151.436 149.33H153.156V151.49H160.516V149.33H162.236V156.79H151.436V149.33ZM153.156 152.89V155.37H160.516V152.89H153.156ZM173.786 156.67V155.27H178.286V153.01H173.866C172.926 156.05 169.966 157.47 166.586 158.15L166.266 156.57C169.826 155.85 172.566 154.57 172.566 150.87H166.666V149.45H174.166V150.87L174.126 151.61H178.286V148.59H180.026V159.15H178.286V156.67H173.786ZM174.566 166.49C172.066 166.49 170.306 164.93 170.306 162.73C170.306 160.51 172.066 158.95 174.566 158.95C177.106 158.95 178.866 160.51 178.866 162.73C178.866 164.93 177.106 166.49 174.566 166.49ZM174.566 165.03C176.106 165.03 177.206 164.09 177.206 162.73C177.206 161.35 176.106 160.41 174.566 160.41C173.046 160.41 171.986 161.35 171.986 162.73C171.986 164.09 173.046 165.03 174.566 165.03ZM195.457 148.59H197.117V165.59H195.457V157.05H193.097V164.69H191.497V148.99H193.097V155.61H195.457V148.59ZM189.977 159.39V160.83H182.977V150.09H189.557V151.53H184.697V159.39H189.977ZM210.768 148.61H212.508V153.41H215.068V154.85H212.508V159.09H210.768V148.61ZM201.268 160.01H212.508V166.21H210.768V161.43H201.268V160.01ZM208.968 150.37V151.81H207.088C207.768 152.49 208.248 153.39 208.248 154.43C208.248 156.75 206.528 158.37 204.068 158.37C201.688 158.37 200.008 156.75 199.988 154.43C199.988 153.39 200.468 152.49 201.128 151.81H199.268V150.37H203.268V148.59H204.968V150.37H208.968ZM201.628 154.43C201.628 155.95 202.628 156.99 204.068 156.99C205.568 156.99 206.628 155.95 206.628 154.43C206.628 152.89 205.568 151.83 204.068 151.83C202.628 151.83 201.628 152.89 201.628 154.43ZM215.479 161.93H219.279V157.07H220.979V161.93H223.639V157.07H225.339V161.93H231.379V163.37H215.479V161.93ZM229.039 150.27V159.59H227.299V151.69H218.079V150.27H229.039ZM13.22 176.57H14.94V193.63H13.22V176.57ZM1.96 189.21L0.68 188.25L3.94 183.87C4.74 182.81 4.9 181.99 4.9 181.07V177.77H6.56V181.07C6.56 181.99 6.72 182.81 7.52 183.87L10.78 188.25L9.5 189.21L6.24 184.83C6.04 184.57 5.88 184.29 5.74 184.05C5.58 184.29 5.42 184.57 5.22 184.83L1.96 189.21ZM29.1508 194.21V189.11H20.0308V187.71H30.8908V194.21H29.1508ZM17.6308 184.47C21.1908 183.79 23.8708 182.25 23.8908 178.83H18.0108V177.41H25.5108V178.81V178.83C25.4908 183.13 21.9908 185.29 17.9108 186.05L17.6308 184.47ZM29.1508 186.91V176.59H30.8908V180.99H33.4508V182.45H30.8908V186.91H29.1508ZM46.5416 193.63V176.59H48.2616V193.63H46.5416ZM44.3216 187.39V188.83H35.1216V178.07H43.1816V179.53H36.8416V187.39H44.3216ZM62.3323 176.61H64.0723V183.67H66.8923V185.11H64.0723V193.61H62.3323V176.61ZM51.5123 188.97L50.2323 188.05L53.4523 183.51C54.2323 182.41 54.3923 181.75 54.3923 180.87V179.59H50.8123V178.15H59.6123V179.59H56.0523V180.87C56.0523 181.75 56.2123 182.41 56.9923 183.51L60.1923 188.05L58.9123 188.97L55.7123 184.43C55.5123 184.17 55.3523 183.91 55.2123 183.67L54.7323 184.43L51.5123 188.97ZM79.8631 176.61H81.6031V188.51H79.8631V176.61ZM70.6831 188.05H72.4231V192.41H81.7431V193.81H70.6831V188.05ZM72.1031 185.79C69.5231 185.79 67.7231 184.05 67.7231 181.59C67.7231 179.11 69.5231 177.37 72.1031 177.37C74.6831 177.37 76.5031 179.11 76.5031 181.59C76.5031 184.05 74.6831 185.79 72.1031 185.79ZM72.1031 184.37C73.6831 184.37 74.7831 183.23 74.7831 181.59C74.7831 179.93 73.6831 178.79 72.1031 178.79C70.5231 178.79 69.4231 179.93 69.4231 181.59C69.4231 183.23 70.5231 184.37 72.1031 184.37ZM96.5739 188.57V182.27H93.3139V180.85H96.5739V176.61H98.3139V188.57H96.5739ZM87.2339 187.99H88.9739V192.41H98.4139V193.81H87.2339V187.99ZM85.7739 186.23L84.6139 185.15L87.5739 182.01C88.2339 181.29 88.3339 180.59 88.3339 179.91V179.13H84.8139V177.69H93.3539V179.13H89.9939V179.91C89.9939 180.59 90.0739 181.27 90.7539 182.01L93.7139 185.15L92.5539 186.23L89.5939 183.09C89.4339 182.91 89.2939 182.73 89.1739 182.55C89.0339 182.73 88.8939 182.91 88.7339 183.09L85.7739 186.23ZM108.425 194.87C105.785 194.87 103.945 193.23 103.945 191.05C103.945 188.71 105.785 187.27 108.425 187.27C111.065 187.27 112.925 188.71 112.925 191.05C112.925 193.23 111.065 194.87 108.425 194.87ZM108.425 193.37C110.085 193.37 111.245 192.37 111.245 191.05C111.245 189.73 110.085 188.77 108.425 188.77C106.765 188.77 105.625 189.73 105.625 191.05C105.625 192.37 106.765 193.37 108.425 193.37ZM100.485 185.81V184.41H106.925V181.07H108.625V184.41H116.345V185.81H100.485ZM102.605 178.79V177.37H113.725V182.53H111.965V178.79H102.605ZM123.745 189.65H132.985V187.95H123.685V186.65H134.705V190.89H125.465V192.67H135.245V194.01H123.745V189.65ZM121.325 185.45V184.07H128.405V181.81H130.145V184.07H137.205V185.45H121.325ZM123.645 183.09L122.965 181.73L127.345 179.59C127.965 179.25 128.245 178.87 128.345 178.57H123.485V177.13H135.025V178.57H130.165C130.285 178.89 130.565 179.31 131.165 179.59L135.545 181.73L134.865 183.09L130.485 180.95C129.925 180.69 129.525 180.35 129.245 179.99C128.965 180.33 128.565 180.65 128.025 180.95L123.645 183.09ZM150.736 176.61H152.476V186.03H150.736V182.03H147.216C146.916 184.11 145.216 185.53 142.896 185.53C140.316 185.53 138.496 183.79 138.496 181.33C138.496 178.85 140.316 177.11 142.896 177.11C145.216 177.11 146.916 178.51 147.216 180.61H150.736V176.61ZM141.576 186.91H143.296V189.03H150.736V186.91H152.476V193.97H141.576V186.91ZM143.296 190.41V192.57H150.736V190.41H143.296ZM142.896 184.11C144.476 184.11 145.576 182.97 145.576 181.33C145.576 179.67 144.476 178.53 142.896 178.53C141.316 178.53 140.196 179.67 140.196 181.33C140.196 182.97 141.316 184.11 142.896 184.11ZM167.386 188.57V182.27H164.126V180.85H167.386V176.61H169.126V188.57H167.386ZM158.046 187.99H159.786V192.41H169.226V193.81H158.046V187.99ZM156.586 186.23L155.426 185.15L158.386 182.01C159.046 181.29 159.146 180.59 159.146 179.91V179.13H155.626V177.69H164.166V179.13H160.806V179.91C160.806 180.59 160.886 181.27 161.566 182.01L164.526 185.15L163.366 186.23L160.406 183.09C160.246 182.91 160.106 182.73 159.986 182.55C159.846 182.73 159.706 182.91 159.546 183.09L156.586 186.23ZM183.937 176.57H185.657V193.63H183.937V176.57ZM172.677 189.21L171.397 188.25L174.657 183.87C175.457 182.81 175.617 181.99 175.617 181.07V177.77H177.277V181.07C177.277 181.99 177.437 182.81 178.237 183.87L181.497 188.25L180.217 189.21L176.957 184.83C176.757 184.57 176.597 184.29 176.457 184.05C176.297 184.29 176.137 184.57 175.937 184.83L172.677 189.21ZM199.188 188.85V190.25H188.148V188.85H192.828V187.19C190.848 186.83 189.528 185.27 189.528 183.19C189.528 182.15 190.008 181.25 190.668 180.55H188.748V179.13H192.968V176.95H194.528V179.13H198.708V180.55H196.768C197.448 181.25 197.908 182.15 197.908 183.19C197.908 185.27 196.568 186.85 194.588 187.19V188.85H199.188ZM193.728 185.79C195.248 185.79 196.308 184.71 196.308 183.19C196.308 181.65 195.248 180.59 193.728 180.59C192.188 180.59 191.108 181.65 191.108 183.19C191.108 184.71 192.188 185.79 193.728 185.79ZM200.548 193.61V176.61H202.288V193.61H200.548ZM208.788 189.89H215.888V186.27H217.608V189.89H224.728V191.33H208.788V189.89ZM211.008 186.97L210.008 185.73L214.588 182.05C215.688 181.31 215.848 180.69 215.848 180.05V177.89H217.708V180.05C217.708 180.63 217.908 181.21 218.968 182.07L223.528 185.73L222.528 186.97L217.968 183.31C217.468 182.89 217.088 182.51 216.808 182.13C216.528 182.53 216.128 182.93 215.548 183.33L211.008 186.97ZM238.679 193.59V184.69H236.419V192.75H234.779V177.05H236.419V183.27H238.679V176.59H240.359V193.59H238.679ZM225.679 187.37C228.619 186.41 231.299 184.07 231.299 179.49H226.319V178.07H232.979V179.49C232.979 184.79 229.639 187.83 226.219 188.97L225.679 187.37Z" fill="#222222"/>
<defs>
<clipPath id="clip0_924_4846">
<rect width="320" height="90.6897" fill="white"/>
</clipPath>
</defs>
</svg>
