<svg width="589" height="175" viewBox="0 0 589 175" fill="none" xmlns="http://www.w3.org/2000/svg">
<g clip-path="url(#clip0_1205_1568)">
<path d="M297.551 42.4391C299.295 45.9339 300.233 49.829 300.233 53.7318C300.233 66.0945 290.034 76.4404 277.561 76.4404C265.087 76.4404 254.889 66.0945 254.889 53.7318C254.889 49.8367 255.826 45.9339 257.571 42.4391H251V28.0673H269.783V20H285.346V28.0673H304.129V42.4468H297.558L297.551 42.4391ZM277.691 45.5336C273.395 45.5336 269.906 49.0285 269.906 53.3315C269.906 57.6346 273.395 61.1217 277.691 61.1217C281.988 61.1217 285.338 57.6269 285.338 53.3315C285.338 49.0361 281.988 45.5336 277.691 45.5336ZM329.215 144.982H276.085V99.5569H291.648V109.233H313.652V99.5569H329.215V144.982ZM313.652 130.602V122.273H291.648V130.602H313.652ZM339.275 58.4352H328.538V97.1398H312.975V25.3731H328.538V42.978H339.275V58.4352Z" fill="#FF74FF"/>
<path d="M412.8 73.4844H358.326V28.0673H373.889V59.1126H412.8V73.4921V73.4844ZM438.293 97.1397H422.73V25.373H438.293V97.132V97.1397Z" fill="#FF74FF"/>
<path d="M516.109 73.4844H461.635V28.0673H514.764V42.4468H477.198V59.1126H516.109V73.4921V73.4844ZM549.917 58.4352H539.181V144.512H523.618V25.373H539.181V42.9779H549.917V58.4352Z" fill="#FF74FF"/>
<path d="M588.437 144.535H570.191V126.53H588.437V144.535Z" fill="#FF74FF"/>
<path d="M231 145H0V131H231V145Z" fill="#FF74FF"/>
<mask id="path-6-outside-1_1205_1568" maskUnits="userSpaceOnUse" x="32.2793" y="-0.119995" width="177" height="176" fill="black">
<rect fill="white" x="32.2793" y="-0.119995" width="177" height="176"/>
<path d="M72.0393 49.8C70.546 49.8 69.266 49.32 68.1993 48.36C67.2393 47.2933 66.7593 46.0667 66.7593 44.68C66.7593 42.8667 67.346 41.32 68.5193 40.04C69.7993 38.76 71.2926 38.12 72.9993 38.12C74.4926 38.12 75.7726 38.6533 76.8393 39.72C77.906 40.7867 78.4393 42.12 78.4393 43.72C78.4393 45.4267 77.7993 46.8667 76.5193 48.04C75.2393 49.2133 73.746 49.8 72.0393 49.8ZM54.4393 109.8C52.5193 109.8 50.9726 109.107 49.7993 107.72C48.7326 106.227 48.1993 104.307 48.1993 101.96C48.1993 98.9733 48.786 95.7733 49.9593 92.36C51.2393 88.9467 52.6793 85.5333 54.2793 82.12C55.986 78.6 57.4793 75.2933 58.7593 72.2C59.2926 70.7067 59.7726 69.3733 60.1993 68.2C60.626 67.0267 60.8393 66.0667 60.8393 65.32C60.8393 64.2533 60.3593 63.72 59.3993 63.72C58.1193 63.72 56.8393 64.52 55.5593 66.12C54.2793 67.72 53.106 69.5333 52.0393 71.56C51.0793 73.48 50.2793 75.0267 49.6393 76.2C48.0393 79.2933 46.2793 82.4933 44.3593 85.8C42.546 89.1067 40.6793 92.1467 38.7593 94.92C38.7593 95.0267 38.6526 95.08 38.4393 95.08C38.226 95.08 37.9593 94.92 37.6393 94.6C37.3193 94.28 37.2126 94.0667 37.3193 93.96C39.346 91.08 41.2126 88.04 42.9193 84.84C44.7326 81.5333 46.386 78.3867 47.8793 75.4C48.946 73.16 50.1193 70.8667 51.3993 68.52C52.786 66.0667 54.386 64.04 56.1993 62.44C58.0126 60.7333 60.0926 59.88 62.4393 59.88C63.506 59.88 64.7326 60.1467 66.1193 60.68C67.7193 61.32 68.5193 62.7067 68.5193 64.84C68.5193 65.9067 68.306 67.1867 67.8793 68.68C67.5593 70.0667 67.0793 71.6667 66.4393 73.48C65.0526 77.1067 63.506 80.7867 61.7993 84.52C60.1993 88.1467 58.706 91.8267 57.3193 95.56C56.2526 98.44 55.7193 101 55.7193 103.24C55.7193 105.693 56.5193 106.92 58.1193 106.92C59.6126 106.92 61.906 105.587 64.9993 102.92C68.0926 100.147 70.9726 96.68 73.6393 92.52C76.306 88.2533 79.506 82.5467 83.2393 75.4C83.346 75.1867 83.5593 75.08 83.8793 75.08C84.0926 75.08 84.306 75.24 84.5193 75.56C84.8393 75.7733 84.946 75.9867 84.8393 76.2C79.186 87.1867 74.1193 95.56 69.6393 101.32C65.1593 106.973 60.0926 109.8 54.4393 109.8Z"/>
<path d="M107.992 109.8C103.512 109.8 101.272 107.293 101.272 102.28C101.272 100.36 101.645 98.0667 102.392 95.4C103.138 92.7333 104.312 89.8 105.912 86.6C106.765 84.7867 107.885 82.6533 109.272 80.2C110.765 77.64 112.098 75.1333 113.272 72.68C114.445 70.2267 115.032 68.3067 115.032 66.92C115.032 65.5333 114.285 64.84 112.792 64.84C110.765 64.84 108.632 65.96 106.392 68.2C104.258 70.3333 102.125 73.1067 99.9918 76.52C97.8585 79.9333 95.8318 83.5067 93.9118 87.24C91.9918 90.9733 90.3385 94.4933 88.9518 97.8C87.5651 101 86.5518 103.453 85.9118 105.16C85.2718 106.76 84.3651 107.773 83.1918 108.2C82.0185 108.627 80.7385 108.84 79.3518 108.84C78.0718 108.84 76.8451 109.053 75.6718 109.48C77.1651 106.067 78.3918 103.293 79.3518 101.16C80.3118 99.0267 81.3251 96.8933 82.3918 94.76C83.4585 92.52 84.7385 89.5333 86.2318 85.8C87.0851 83.88 88.0451 81.6933 89.1118 79.24C90.1785 76.68 91.0851 74.2267 91.8318 71.88C92.6851 69.4267 93.1118 67.5067 93.1118 66.12C93.1118 64.52 92.5785 63.72 91.5118 63.72C90.2318 63.72 88.9518 64.52 87.6718 66.12C86.3918 67.72 85.2185 69.5333 84.1518 71.56C83.1918 73.48 82.3918 75.0267 81.7518 76.2C80.1518 79.2933 78.5518 82.3333 76.9518 85.32C75.3518 88.3067 73.5385 91.1867 71.5118 93.96H71.3518C71.0318 93.96 70.6585 93.8533 70.2318 93.64C69.9118 93.4267 69.8051 93.2667 69.9118 93.16C71.7251 90.28 73.4318 87.4 75.0318 84.52C76.7385 81.64 78.2851 78.76 79.6718 75.88C80.8451 73.64 82.1251 71.2933 83.5118 68.84C84.8985 66.28 86.4985 64.1467 88.3118 62.44C90.1251 60.7333 92.2051 59.88 94.5518 59.88C95.6185 59.88 96.8451 60.1467 98.2318 60.68C99.7251 61.32 100.472 62.76 100.472 65C100.472 66.1733 100.258 67.6133 99.8318 69.32C99.4051 71.0267 98.8185 72.9467 98.0718 75.08C100.845 71.1333 103.778 67.7733 106.872 65C109.965 62.12 112.792 60.68 115.352 60.68C119.405 60.68 121.432 62.6 121.432 66.44C121.432 68.7867 120.738 71.6667 119.352 75.08C118.925 76.2533 118.125 78.12 116.952 80.68C115.885 83.1333 114.765 85.9067 113.592 89C112.525 91.9867 111.565 94.8667 110.712 97.64C109.858 100.413 109.432 102.707 109.432 104.52C109.432 106.44 110.018 107.4 111.192 107.4C111.938 107.4 112.898 107.08 114.072 106.44C115.352 105.693 116.845 104.52 118.552 102.92C121.645 100.147 124.525 96.6267 127.192 92.36C129.965 88.0933 133.218 82.3867 136.952 75.24C136.952 75.0267 137.058 74.92 137.272 74.92C137.592 74.92 137.912 75.08 138.232 75.4C138.552 75.72 138.605 75.9867 138.392 76.2C134.552 83.6667 131.032 89.9067 127.832 94.92C124.738 99.8267 121.592 103.56 118.392 106.12C115.298 108.573 111.832 109.8 107.992 109.8Z"/>
<path d="M121.347 171.72C120.707 171.72 120.067 171.56 119.427 171.24C117.72 170.387 116.44 168.68 115.587 166.12C114.733 163.56 114.307 160.36 114.307 156.52C114.307 151.72 114.893 146.013 116.067 139.4C117.133 132.893 118.627 125.853 120.547 118.28C122.467 110.813 124.653 103.187 127.107 95.4C126.787 94.5467 126.627 93.64 126.627 92.68C126.627 91.6133 126.84 90.6533 127.267 89.8C127.693 88.9467 128.44 88.4133 129.507 88.2C132.067 80.3067 134.733 72.6267 137.507 65.16C140.387 57.5867 143.213 50.5467 145.987 44.04C148.76 37.4267 151.373 31.6667 153.827 26.76C156.28 21.8533 158.467 18.0667 160.387 15.4C163.16 11.6667 166.04 8.84 169.027 6.92C172.12 4.89334 174.84 3.88 177.187 3.88C179 3.88 180.44 4.46667 181.507 5.64C182.573 6.70667 183.107 8.46667 183.107 10.92C183.107 13.2667 182.413 16.2533 181.027 19.88C179.747 23.4 177.56 27.6667 174.467 32.68C172.12 36.4133 169.453 40.36 166.467 44.52C163.587 48.5733 160.653 52.52 157.667 56.36C154.68 60.2 151.8 63.6667 149.027 66.76C146.36 69.7467 144.067 72.0933 142.147 73.8L136.547 89.96C137.4 90.7067 138.36 91.9333 139.427 93.64C140.493 95.3467 141.08 97.32 141.187 99.56C142.04 99.7733 142.84 99.9867 143.587 100.2C144.333 100.307 145.08 100.36 145.827 100.36C149.24 100.36 152.333 98.8667 155.107 95.88C157.88 92.7867 161.187 87.6667 165.027 80.52C165.24 80.2 165.453 80.04 165.667 80.04C165.987 80.04 166.2 80.2 166.307 80.52C166.52 80.84 166.52 81.2133 166.307 81.64C164.92 84.2 163.587 86.6533 162.307 89C161.133 91.24 159.853 93.2667 158.467 95.08C156.547 97.5333 154.253 99.4533 151.587 100.84C149.027 102.227 145.613 102.76 141.347 102.44C141.667 104.36 141.827 106.547 141.827 109C141.827 113.267 141.453 118.12 140.707 123.56C139.96 129.107 138.893 134.653 137.507 140.2C136.227 145.853 134.733 151.027 133.027 155.72C131.32 160.52 129.453 164.36 127.427 167.24C125.507 170.227 123.48 171.72 121.347 171.72ZM143.267 70.28C145.827 67.2933 148.867 63.56 152.387 59.08C155.907 54.4933 159.48 49.6933 163.107 44.68C166.733 39.6667 169.88 34.9733 172.547 30.6C175 26.5467 176.76 22.92 177.827 19.72C178.893 16.52 179.427 13.9067 179.427 11.88C179.427 8.36 178.36 6.6 176.227 6.6C174.84 6.6 173.08 7.56 170.947 9.48C168.92 11.4 166.787 14.3867 164.547 18.44C162.947 21.32 161.24 24.7867 159.427 28.84C157.613 32.8933 155.8 37.16 153.987 41.64C152.28 46.12 150.627 50.3867 149.027 54.44C147.533 58.3867 146.253 61.8 145.187 64.68C144.227 67.56 143.587 69.4267 143.267 70.28ZM122.627 168.84C123.8 168.84 125.347 166.653 127.267 162.28C129.187 158.013 131.053 152.947 132.867 147.08C134.68 141.32 136.173 135.24 137.347 128.84C138.52 122.44 139.107 116.36 139.107 110.6C139.107 107.72 138.947 105.107 138.627 102.76C137.24 102.547 136.12 102.333 135.267 102.12C134.413 101.8 133.72 101.32 133.187 100.68C130.947 107.72 128.813 114.76 126.787 121.8C124.867 128.947 123.533 134.867 122.787 139.56C122.68 140.093 122.467 141.533 122.147 143.88C121.827 146.333 121.56 149.107 121.347 152.2C121.027 155.4 120.867 158.387 120.867 161.16C120.867 163.293 121.027 165.107 121.347 166.6C121.56 168.093 121.987 168.84 122.627 168.84Z"/>
<path d="M165.973 109.8C162.453 109.8 160 108.84 158.613 106.92C157.333 104.893 156.693 102.44 156.693 99.56C156.693 96.4667 157.226 93.2133 158.293 89.8C159.36 86.28 160.373 83.4533 161.333 81.32C164.213 74.6 167.84 69.3733 172.213 65.64C176.586 61.8 180.586 59.88 184.213 59.88C187.306 59.88 189.386 60.7867 190.453 62.6C191.626 64.4133 192.213 66.6533 192.213 69.32C192.213 72.0933 191.733 75.0267 190.773 78.12C189.92 81.1067 188.96 83.6667 187.893 85.8C186.613 88.4667 185.28 90.9733 183.893 93.32C182.506 95.6667 181.066 97.8 179.573 99.72C180.533 100.573 181.706 101 183.093 101C185.226 101 187.306 99.9867 189.333 97.96C191.466 95.9333 193.44 93.4267 195.253 90.44C197.173 87.4533 198.826 84.5733 200.213 81.8C201.706 79.0267 202.826 76.9467 203.573 75.56C203.786 75.24 204 75.08 204.213 75.08C204.426 75.08 204.64 75.2933 204.853 75.72C205.066 76.04 205.066 76.4133 204.853 76.84C203.146 80.4667 201.013 84.52 198.453 89C196 93.48 193.226 97.16 190.133 100.04C188.853 101.213 187.626 102.067 186.453 102.6C185.28 103.133 184.213 103.4 183.253 103.4C181.44 103.4 179.84 102.707 178.453 101.32C176.426 103.987 174.346 106.067 172.213 107.56C170.08 109.053 168 109.8 165.973 109.8ZM167.893 107.4C169.066 107.4 170.453 106.707 172.053 105.32C173.653 103.827 175.306 101.907 177.013 99.56C177.013 99.56 176.693 99.0267 176.053 97.96C175.52 96.8933 175.253 95.2933 175.253 93.16C175.253 92.3067 175.306 91.4 175.413 90.44C175.52 89.3733 175.786 88.3067 176.213 87.24C176.96 85.1067 177.866 83.56 178.933 82.6C180 81.5333 181.066 81 182.133 81C183.093 81 183.84 81.48 184.373 82.44C185.013 83.2933 185.173 84.5733 184.853 86.28C186.346 82.9733 187.573 79.7733 188.533 76.68C189.493 73.48 189.973 70.7067 189.973 68.36C189.973 66.5467 189.6 65.1067 188.853 64.04C188.213 62.8667 187.04 62.28 185.333 62.28C183.84 62.28 182.133 63.24 180.213 65.16C178.293 66.9733 176.32 69.4267 174.293 72.52C172.373 75.5067 170.56 78.76 168.853 82.28C167.253 85.8 165.92 89.2667 164.853 92.68C163.893 95.9867 163.413 98.8667 163.413 101.32C163.413 103.133 163.733 104.627 164.373 105.8C165.12 106.867 166.293 107.4 167.893 107.4Z"/>
</mask>
<path d="M72.0393 49.8C70.546 49.8 69.266 49.32 68.1993 48.36C67.2393 47.2933 66.7593 46.0667 66.7593 44.68C66.7593 42.8667 67.346 41.32 68.5193 40.04C69.7993 38.76 71.2926 38.12 72.9993 38.12C74.4926 38.12 75.7726 38.6533 76.8393 39.72C77.906 40.7867 78.4393 42.12 78.4393 43.72C78.4393 45.4267 77.7993 46.8667 76.5193 48.04C75.2393 49.2133 73.746 49.8 72.0393 49.8ZM54.4393 109.8C52.5193 109.8 50.9726 109.107 49.7993 107.72C48.7326 106.227 48.1993 104.307 48.1993 101.96C48.1993 98.9733 48.786 95.7733 49.9593 92.36C51.2393 88.9467 52.6793 85.5333 54.2793 82.12C55.986 78.6 57.4793 75.2933 58.7593 72.2C59.2926 70.7067 59.7726 69.3733 60.1993 68.2C60.626 67.0267 60.8393 66.0667 60.8393 65.32C60.8393 64.2533 60.3593 63.72 59.3993 63.72C58.1193 63.72 56.8393 64.52 55.5593 66.12C54.2793 67.72 53.106 69.5333 52.0393 71.56C51.0793 73.48 50.2793 75.0267 49.6393 76.2C48.0393 79.2933 46.2793 82.4933 44.3593 85.8C42.546 89.1067 40.6793 92.1467 38.7593 94.92C38.7593 95.0267 38.6526 95.08 38.4393 95.08C38.226 95.08 37.9593 94.92 37.6393 94.6C37.3193 94.28 37.2126 94.0667 37.3193 93.96C39.346 91.08 41.2126 88.04 42.9193 84.84C44.7326 81.5333 46.386 78.3867 47.8793 75.4C48.946 73.16 50.1193 70.8667 51.3993 68.52C52.786 66.0667 54.386 64.04 56.1993 62.44C58.0126 60.7333 60.0926 59.88 62.4393 59.88C63.506 59.88 64.7326 60.1467 66.1193 60.68C67.7193 61.32 68.5193 62.7067 68.5193 64.84C68.5193 65.9067 68.306 67.1867 67.8793 68.68C67.5593 70.0667 67.0793 71.6667 66.4393 73.48C65.0526 77.1067 63.506 80.7867 61.7993 84.52C60.1993 88.1467 58.706 91.8267 57.3193 95.56C56.2526 98.44 55.7193 101 55.7193 103.24C55.7193 105.693 56.5193 106.92 58.1193 106.92C59.6126 106.92 61.906 105.587 64.9993 102.92C68.0926 100.147 70.9726 96.68 73.6393 92.52C76.306 88.2533 79.506 82.5467 83.2393 75.4C83.346 75.1867 83.5593 75.08 83.8793 75.08C84.0926 75.08 84.306 75.24 84.5193 75.56C84.8393 75.7733 84.946 75.9867 84.8393 76.2C79.186 87.1867 74.1193 95.56 69.6393 101.32C65.1593 106.973 60.0926 109.8 54.4393 109.8Z" fill="#FF74FF"/>
<path d="M107.992 109.8C103.512 109.8 101.272 107.293 101.272 102.28C101.272 100.36 101.645 98.0667 102.392 95.4C103.138 92.7333 104.312 89.8 105.912 86.6C106.765 84.7867 107.885 82.6533 109.272 80.2C110.765 77.64 112.098 75.1333 113.272 72.68C114.445 70.2267 115.032 68.3067 115.032 66.92C115.032 65.5333 114.285 64.84 112.792 64.84C110.765 64.84 108.632 65.96 106.392 68.2C104.258 70.3333 102.125 73.1067 99.9918 76.52C97.8585 79.9333 95.8318 83.5067 93.9118 87.24C91.9918 90.9733 90.3385 94.4933 88.9518 97.8C87.5651 101 86.5518 103.453 85.9118 105.16C85.2718 106.76 84.3651 107.773 83.1918 108.2C82.0185 108.627 80.7385 108.84 79.3518 108.84C78.0718 108.84 76.8451 109.053 75.6718 109.48C77.1651 106.067 78.3918 103.293 79.3518 101.16C80.3118 99.0267 81.3251 96.8933 82.3918 94.76C83.4585 92.52 84.7385 89.5333 86.2318 85.8C87.0851 83.88 88.0451 81.6933 89.1118 79.24C90.1785 76.68 91.0851 74.2267 91.8318 71.88C92.6851 69.4267 93.1118 67.5067 93.1118 66.12C93.1118 64.52 92.5785 63.72 91.5118 63.72C90.2318 63.72 88.9518 64.52 87.6718 66.12C86.3918 67.72 85.2185 69.5333 84.1518 71.56C83.1918 73.48 82.3918 75.0267 81.7518 76.2C80.1518 79.2933 78.5518 82.3333 76.9518 85.32C75.3518 88.3067 73.5385 91.1867 71.5118 93.96H71.3518C71.0318 93.96 70.6585 93.8533 70.2318 93.64C69.9118 93.4267 69.8051 93.2667 69.9118 93.16C71.7251 90.28 73.4318 87.4 75.0318 84.52C76.7385 81.64 78.2851 78.76 79.6718 75.88C80.8451 73.64 82.1251 71.2933 83.5118 68.84C84.8985 66.28 86.4985 64.1467 88.3118 62.44C90.1251 60.7333 92.2051 59.88 94.5518 59.88C95.6185 59.88 96.8451 60.1467 98.2318 60.68C99.7251 61.32 100.472 62.76 100.472 65C100.472 66.1733 100.258 67.6133 99.8318 69.32C99.4051 71.0267 98.8185 72.9467 98.0718 75.08C100.845 71.1333 103.778 67.7733 106.872 65C109.965 62.12 112.792 60.68 115.352 60.68C119.405 60.68 121.432 62.6 121.432 66.44C121.432 68.7867 120.738 71.6667 119.352 75.08C118.925 76.2533 118.125 78.12 116.952 80.68C115.885 83.1333 114.765 85.9067 113.592 89C112.525 91.9867 111.565 94.8667 110.712 97.64C109.858 100.413 109.432 102.707 109.432 104.52C109.432 106.44 110.018 107.4 111.192 107.4C111.938 107.4 112.898 107.08 114.072 106.44C115.352 105.693 116.845 104.52 118.552 102.92C121.645 100.147 124.525 96.6267 127.192 92.36C129.965 88.0933 133.218 82.3867 136.952 75.24C136.952 75.0267 137.058 74.92 137.272 74.92C137.592 74.92 137.912 75.08 138.232 75.4C138.552 75.72 138.605 75.9867 138.392 76.2C134.552 83.6667 131.032 89.9067 127.832 94.92C124.738 99.8267 121.592 103.56 118.392 106.12C115.298 108.573 111.832 109.8 107.992 109.8Z" fill="#FF74FF"/>
<path d="M121.347 171.72C120.707 171.72 120.067 171.56 119.427 171.24C117.72 170.387 116.44 168.68 115.587 166.12C114.733 163.56 114.307 160.36 114.307 156.52C114.307 151.72 114.893 146.013 116.067 139.4C117.133 132.893 118.627 125.853 120.547 118.28C122.467 110.813 124.653 103.187 127.107 95.4C126.787 94.5467 126.627 93.64 126.627 92.68C126.627 91.6133 126.84 90.6533 127.267 89.8C127.693 88.9467 128.44 88.4133 129.507 88.2C132.067 80.3067 134.733 72.6267 137.507 65.16C140.387 57.5867 143.213 50.5467 145.987 44.04C148.76 37.4267 151.373 31.6667 153.827 26.76C156.28 21.8533 158.467 18.0667 160.387 15.4C163.16 11.6667 166.04 8.84 169.027 6.92C172.12 4.89334 174.84 3.88 177.187 3.88C179 3.88 180.44 4.46667 181.507 5.64C182.573 6.70667 183.107 8.46667 183.107 10.92C183.107 13.2667 182.413 16.2533 181.027 19.88C179.747 23.4 177.56 27.6667 174.467 32.68C172.12 36.4133 169.453 40.36 166.467 44.52C163.587 48.5733 160.653 52.52 157.667 56.36C154.68 60.2 151.8 63.6667 149.027 66.76C146.36 69.7467 144.067 72.0933 142.147 73.8L136.547 89.96C137.4 90.7067 138.36 91.9333 139.427 93.64C140.493 95.3467 141.08 97.32 141.187 99.56C142.04 99.7733 142.84 99.9867 143.587 100.2C144.333 100.307 145.08 100.36 145.827 100.36C149.24 100.36 152.333 98.8667 155.107 95.88C157.88 92.7867 161.187 87.6667 165.027 80.52C165.24 80.2 165.453 80.04 165.667 80.04C165.987 80.04 166.2 80.2 166.307 80.52C166.52 80.84 166.52 81.2133 166.307 81.64C164.92 84.2 163.587 86.6533 162.307 89C161.133 91.24 159.853 93.2667 158.467 95.08C156.547 97.5333 154.253 99.4533 151.587 100.84C149.027 102.227 145.613 102.76 141.347 102.44C141.667 104.36 141.827 106.547 141.827 109C141.827 113.267 141.453 118.12 140.707 123.56C139.96 129.107 138.893 134.653 137.507 140.2C136.227 145.853 134.733 151.027 133.027 155.72C131.32 160.52 129.453 164.36 127.427 167.24C125.507 170.227 123.48 171.72 121.347 171.72ZM143.267 70.28C145.827 67.2933 148.867 63.56 152.387 59.08C155.907 54.4933 159.48 49.6933 163.107 44.68C166.733 39.6667 169.88 34.9733 172.547 30.6C175 26.5467 176.76 22.92 177.827 19.72C178.893 16.52 179.427 13.9067 179.427 11.88C179.427 8.36 178.36 6.6 176.227 6.6C174.84 6.6 173.08 7.56 170.947 9.48C168.92 11.4 166.787 14.3867 164.547 18.44C162.947 21.32 161.24 24.7867 159.427 28.84C157.613 32.8933 155.8 37.16 153.987 41.64C152.28 46.12 150.627 50.3867 149.027 54.44C147.533 58.3867 146.253 61.8 145.187 64.68C144.227 67.56 143.587 69.4267 143.267 70.28ZM122.627 168.84C123.8 168.84 125.347 166.653 127.267 162.28C129.187 158.013 131.053 152.947 132.867 147.08C134.68 141.32 136.173 135.24 137.347 128.84C138.52 122.44 139.107 116.36 139.107 110.6C139.107 107.72 138.947 105.107 138.627 102.76C137.24 102.547 136.12 102.333 135.267 102.12C134.413 101.8 133.72 101.32 133.187 100.68C130.947 107.72 128.813 114.76 126.787 121.8C124.867 128.947 123.533 134.867 122.787 139.56C122.68 140.093 122.467 141.533 122.147 143.88C121.827 146.333 121.56 149.107 121.347 152.2C121.027 155.4 120.867 158.387 120.867 161.16C120.867 163.293 121.027 165.107 121.347 166.6C121.56 168.093 121.987 168.84 122.627 168.84Z" fill="#FF74FF"/>
<path d="M165.973 109.8C162.453 109.8 160 108.84 158.613 106.92C157.333 104.893 156.693 102.44 156.693 99.56C156.693 96.4667 157.226 93.2133 158.293 89.8C159.36 86.28 160.373 83.4533 161.333 81.32C164.213 74.6 167.84 69.3733 172.213 65.64C176.586 61.8 180.586 59.88 184.213 59.88C187.306 59.88 189.386 60.7867 190.453 62.6C191.626 64.4133 192.213 66.6533 192.213 69.32C192.213 72.0933 191.733 75.0267 190.773 78.12C189.92 81.1067 188.96 83.6667 187.893 85.8C186.613 88.4667 185.28 90.9733 183.893 93.32C182.506 95.6667 181.066 97.8 179.573 99.72C180.533 100.573 181.706 101 183.093 101C185.226 101 187.306 99.9867 189.333 97.96C191.466 95.9333 193.44 93.4267 195.253 90.44C197.173 87.4533 198.826 84.5733 200.213 81.8C201.706 79.0267 202.826 76.9467 203.573 75.56C203.786 75.24 204 75.08 204.213 75.08C204.426 75.08 204.64 75.2933 204.853 75.72C205.066 76.04 205.066 76.4133 204.853 76.84C203.146 80.4667 201.013 84.52 198.453 89C196 93.48 193.226 97.16 190.133 100.04C188.853 101.213 187.626 102.067 186.453 102.6C185.28 103.133 184.213 103.4 183.253 103.4C181.44 103.4 179.84 102.707 178.453 101.32C176.426 103.987 174.346 106.067 172.213 107.56C170.08 109.053 168 109.8 165.973 109.8ZM167.893 107.4C169.066 107.4 170.453 106.707 172.053 105.32C173.653 103.827 175.306 101.907 177.013 99.56C177.013 99.56 176.693 99.0267 176.053 97.96C175.52 96.8933 175.253 95.2933 175.253 93.16C175.253 92.3067 175.306 91.4 175.413 90.44C175.52 89.3733 175.786 88.3067 176.213 87.24C176.96 85.1067 177.866 83.56 178.933 82.6C180 81.5333 181.066 81 182.133 81C183.093 81 183.84 81.48 184.373 82.44C185.013 83.2933 185.173 84.5733 184.853 86.28C186.346 82.9733 187.573 79.7733 188.533 76.68C189.493 73.48 189.973 70.7067 189.973 68.36C189.973 66.5467 189.6 65.1067 188.853 64.04C188.213 62.8667 187.04 62.28 185.333 62.28C183.84 62.28 182.133 63.24 180.213 65.16C178.293 66.9733 176.32 69.4267 174.293 72.52C172.373 75.5067 170.56 78.76 168.853 82.28C167.253 85.8 165.92 89.2667 164.853 92.68C163.893 95.9867 163.413 98.8667 163.413 101.32C163.413 103.133 163.733 104.627 164.373 105.8C165.12 106.867 166.293 107.4 167.893 107.4Z" fill="#FF74FF"/>
<path d="M72.0393 49.8C70.546 49.8 69.266 49.32 68.1993 48.36C67.2393 47.2933 66.7593 46.0667 66.7593 44.68C66.7593 42.8667 67.346 41.32 68.5193 40.04C69.7993 38.76 71.2926 38.12 72.9993 38.12C74.4926 38.12 75.7726 38.6533 76.8393 39.72C77.906 40.7867 78.4393 42.12 78.4393 43.72C78.4393 45.4267 77.7993 46.8667 76.5193 48.04C75.2393 49.2133 73.746 49.8 72.0393 49.8ZM54.4393 109.8C52.5193 109.8 50.9726 109.107 49.7993 107.72C48.7326 106.227 48.1993 104.307 48.1993 101.96C48.1993 98.9733 48.786 95.7733 49.9593 92.36C51.2393 88.9467 52.6793 85.5333 54.2793 82.12C55.986 78.6 57.4793 75.2933 58.7593 72.2C59.2926 70.7067 59.7726 69.3733 60.1993 68.2C60.626 67.0267 60.8393 66.0667 60.8393 65.32C60.8393 64.2533 60.3593 63.72 59.3993 63.72C58.1193 63.72 56.8393 64.52 55.5593 66.12C54.2793 67.72 53.106 69.5333 52.0393 71.56C51.0793 73.48 50.2793 75.0267 49.6393 76.2C48.0393 79.2933 46.2793 82.4933 44.3593 85.8C42.546 89.1067 40.6793 92.1467 38.7593 94.92C38.7593 95.0267 38.6526 95.08 38.4393 95.08C38.226 95.08 37.9593 94.92 37.6393 94.6C37.3193 94.28 37.2126 94.0667 37.3193 93.96C39.346 91.08 41.2126 88.04 42.9193 84.84C44.7326 81.5333 46.386 78.3867 47.8793 75.4C48.946 73.16 50.1193 70.8667 51.3993 68.52C52.786 66.0667 54.386 64.04 56.1993 62.44C58.0126 60.7333 60.0926 59.88 62.4393 59.88C63.506 59.88 64.7326 60.1467 66.1193 60.68C67.7193 61.32 68.5193 62.7067 68.5193 64.84C68.5193 65.9067 68.306 67.1867 67.8793 68.68C67.5593 70.0667 67.0793 71.6667 66.4393 73.48C65.0526 77.1067 63.506 80.7867 61.7993 84.52C60.1993 88.1467 58.706 91.8267 57.3193 95.56C56.2526 98.44 55.7193 101 55.7193 103.24C55.7193 105.693 56.5193 106.92 58.1193 106.92C59.6126 106.92 61.906 105.587 64.9993 102.92C68.0926 100.147 70.9726 96.68 73.6393 92.52C76.306 88.2533 79.506 82.5467 83.2393 75.4C83.346 75.1867 83.5593 75.08 83.8793 75.08C84.0926 75.08 84.306 75.24 84.5193 75.56C84.8393 75.7733 84.946 75.9867 84.8393 76.2C79.186 87.1867 74.1193 95.56 69.6393 101.32C65.1593 106.973 60.0926 109.8 54.4393 109.8Z" stroke="white" stroke-width="8" mask="url(#path-6-outside-1_1205_1568)"/>
<path d="M107.992 109.8C103.512 109.8 101.272 107.293 101.272 102.28C101.272 100.36 101.645 98.0667 102.392 95.4C103.138 92.7333 104.312 89.8 105.912 86.6C106.765 84.7867 107.885 82.6533 109.272 80.2C110.765 77.64 112.098 75.1333 113.272 72.68C114.445 70.2267 115.032 68.3067 115.032 66.92C115.032 65.5333 114.285 64.84 112.792 64.84C110.765 64.84 108.632 65.96 106.392 68.2C104.258 70.3333 102.125 73.1067 99.9918 76.52C97.8585 79.9333 95.8318 83.5067 93.9118 87.24C91.9918 90.9733 90.3385 94.4933 88.9518 97.8C87.5651 101 86.5518 103.453 85.9118 105.16C85.2718 106.76 84.3651 107.773 83.1918 108.2C82.0185 108.627 80.7385 108.84 79.3518 108.84C78.0718 108.84 76.8451 109.053 75.6718 109.48C77.1651 106.067 78.3918 103.293 79.3518 101.16C80.3118 99.0267 81.3251 96.8933 82.3918 94.76C83.4585 92.52 84.7385 89.5333 86.2318 85.8C87.0851 83.88 88.0451 81.6933 89.1118 79.24C90.1785 76.68 91.0851 74.2267 91.8318 71.88C92.6851 69.4267 93.1118 67.5067 93.1118 66.12C93.1118 64.52 92.5785 63.72 91.5118 63.72C90.2318 63.72 88.9518 64.52 87.6718 66.12C86.3918 67.72 85.2185 69.5333 84.1518 71.56C83.1918 73.48 82.3918 75.0267 81.7518 76.2C80.1518 79.2933 78.5518 82.3333 76.9518 85.32C75.3518 88.3067 73.5385 91.1867 71.5118 93.96H71.3518C71.0318 93.96 70.6585 93.8533 70.2318 93.64C69.9118 93.4267 69.8051 93.2667 69.9118 93.16C71.7251 90.28 73.4318 87.4 75.0318 84.52C76.7385 81.64 78.2851 78.76 79.6718 75.88C80.8451 73.64 82.1251 71.2933 83.5118 68.84C84.8985 66.28 86.4985 64.1467 88.3118 62.44C90.1251 60.7333 92.2051 59.88 94.5518 59.88C95.6185 59.88 96.8451 60.1467 98.2318 60.68C99.7251 61.32 100.472 62.76 100.472 65C100.472 66.1733 100.258 67.6133 99.8318 69.32C99.4051 71.0267 98.8185 72.9467 98.0718 75.08C100.845 71.1333 103.778 67.7733 106.872 65C109.965 62.12 112.792 60.68 115.352 60.68C119.405 60.68 121.432 62.6 121.432 66.44C121.432 68.7867 120.738 71.6667 119.352 75.08C118.925 76.2533 118.125 78.12 116.952 80.68C115.885 83.1333 114.765 85.9067 113.592 89C112.525 91.9867 111.565 94.8667 110.712 97.64C109.858 100.413 109.432 102.707 109.432 104.52C109.432 106.44 110.018 107.4 111.192 107.4C111.938 107.4 112.898 107.08 114.072 106.44C115.352 105.693 116.845 104.52 118.552 102.92C121.645 100.147 124.525 96.6267 127.192 92.36C129.965 88.0933 133.218 82.3867 136.952 75.24C136.952 75.0267 137.058 74.92 137.272 74.92C137.592 74.92 137.912 75.08 138.232 75.4C138.552 75.72 138.605 75.9867 138.392 76.2C134.552 83.6667 131.032 89.9067 127.832 94.92C124.738 99.8267 121.592 103.56 118.392 106.12C115.298 108.573 111.832 109.8 107.992 109.8Z" stroke="white" stroke-width="8" mask="url(#path-6-outside-1_1205_1568)"/>
<path d="M121.347 171.72C120.707 171.72 120.067 171.56 119.427 171.24C117.72 170.387 116.44 168.68 115.587 166.12C114.733 163.56 114.307 160.36 114.307 156.52C114.307 151.72 114.893 146.013 116.067 139.4C117.133 132.893 118.627 125.853 120.547 118.28C122.467 110.813 124.653 103.187 127.107 95.4C126.787 94.5467 126.627 93.64 126.627 92.68C126.627 91.6133 126.84 90.6533 127.267 89.8C127.693 88.9467 128.44 88.4133 129.507 88.2C132.067 80.3067 134.733 72.6267 137.507 65.16C140.387 57.5867 143.213 50.5467 145.987 44.04C148.76 37.4267 151.373 31.6667 153.827 26.76C156.28 21.8533 158.467 18.0667 160.387 15.4C163.16 11.6667 166.04 8.84 169.027 6.92C172.12 4.89334 174.84 3.88 177.187 3.88C179 3.88 180.44 4.46667 181.507 5.64C182.573 6.70667 183.107 8.46667 183.107 10.92C183.107 13.2667 182.413 16.2533 181.027 19.88C179.747 23.4 177.56 27.6667 174.467 32.68C172.12 36.4133 169.453 40.36 166.467 44.52C163.587 48.5733 160.653 52.52 157.667 56.36C154.68 60.2 151.8 63.6667 149.027 66.76C146.36 69.7467 144.067 72.0933 142.147 73.8L136.547 89.96C137.4 90.7067 138.36 91.9333 139.427 93.64C140.493 95.3467 141.08 97.32 141.187 99.56C142.04 99.7733 142.84 99.9867 143.587 100.2C144.333 100.307 145.08 100.36 145.827 100.36C149.24 100.36 152.333 98.8667 155.107 95.88C157.88 92.7867 161.187 87.6667 165.027 80.52C165.24 80.2 165.453 80.04 165.667 80.04C165.987 80.04 166.2 80.2 166.307 80.52C166.52 80.84 166.52 81.2133 166.307 81.64C164.92 84.2 163.587 86.6533 162.307 89C161.133 91.24 159.853 93.2667 158.467 95.08C156.547 97.5333 154.253 99.4533 151.587 100.84C149.027 102.227 145.613 102.76 141.347 102.44C141.667 104.36 141.827 106.547 141.827 109C141.827 113.267 141.453 118.12 140.707 123.56C139.96 129.107 138.893 134.653 137.507 140.2C136.227 145.853 134.733 151.027 133.027 155.72C131.32 160.52 129.453 164.36 127.427 167.24C125.507 170.227 123.48 171.72 121.347 171.72ZM143.267 70.28C145.827 67.2933 148.867 63.56 152.387 59.08C155.907 54.4933 159.48 49.6933 163.107 44.68C166.733 39.6667 169.88 34.9733 172.547 30.6C175 26.5467 176.76 22.92 177.827 19.72C178.893 16.52 179.427 13.9067 179.427 11.88C179.427 8.36 178.36 6.6 176.227 6.6C174.84 6.6 173.08 7.56 170.947 9.48C168.92 11.4 166.787 14.3867 164.547 18.44C162.947 21.32 161.24 24.7867 159.427 28.84C157.613 32.8933 155.8 37.16 153.987 41.64C152.28 46.12 150.627 50.3867 149.027 54.44C147.533 58.3867 146.253 61.8 145.187 64.68C144.227 67.56 143.587 69.4267 143.267 70.28ZM122.627 168.84C123.8 168.84 125.347 166.653 127.267 162.28C129.187 158.013 131.053 152.947 132.867 147.08C134.68 141.32 136.173 135.24 137.347 128.84C138.52 122.44 139.107 116.36 139.107 110.6C139.107 107.72 138.947 105.107 138.627 102.76C137.24 102.547 136.12 102.333 135.267 102.12C134.413 101.8 133.72 101.32 133.187 100.68C130.947 107.72 128.813 114.76 126.787 121.8C124.867 128.947 123.533 134.867 122.787 139.56C122.68 140.093 122.467 141.533 122.147 143.88C121.827 146.333 121.56 149.107 121.347 152.2C121.027 155.4 120.867 158.387 120.867 161.16C120.867 163.293 121.027 165.107 121.347 166.6C121.56 168.093 121.987 168.84 122.627 168.84Z" stroke="white" stroke-width="8" mask="url(#path-6-outside-1_1205_1568)"/>
<path d="M165.973 109.8C162.453 109.8 160 108.84 158.613 106.92C157.333 104.893 156.693 102.44 156.693 99.56C156.693 96.4667 157.226 93.2133 158.293 89.8C159.36 86.28 160.373 83.4533 161.333 81.32C164.213 74.6 167.84 69.3733 172.213 65.64C176.586 61.8 180.586 59.88 184.213 59.88C187.306 59.88 189.386 60.7867 190.453 62.6C191.626 64.4133 192.213 66.6533 192.213 69.32C192.213 72.0933 191.733 75.0267 190.773 78.12C189.92 81.1067 188.96 83.6667 187.893 85.8C186.613 88.4667 185.28 90.9733 183.893 93.32C182.506 95.6667 181.066 97.8 179.573 99.72C180.533 100.573 181.706 101 183.093 101C185.226 101 187.306 99.9867 189.333 97.96C191.466 95.9333 193.44 93.4267 195.253 90.44C197.173 87.4533 198.826 84.5733 200.213 81.8C201.706 79.0267 202.826 76.9467 203.573 75.56C203.786 75.24 204 75.08 204.213 75.08C204.426 75.08 204.64 75.2933 204.853 75.72C205.066 76.04 205.066 76.4133 204.853 76.84C203.146 80.4667 201.013 84.52 198.453 89C196 93.48 193.226 97.16 190.133 100.04C188.853 101.213 187.626 102.067 186.453 102.6C185.28 103.133 184.213 103.4 183.253 103.4C181.44 103.4 179.84 102.707 178.453 101.32C176.426 103.987 174.346 106.067 172.213 107.56C170.08 109.053 168 109.8 165.973 109.8ZM167.893 107.4C169.066 107.4 170.453 106.707 172.053 105.32C173.653 103.827 175.306 101.907 177.013 99.56C177.013 99.56 176.693 99.0267 176.053 97.96C175.52 96.8933 175.253 95.2933 175.253 93.16C175.253 92.3067 175.306 91.4 175.413 90.44C175.52 89.3733 175.786 88.3067 176.213 87.24C176.96 85.1067 177.866 83.56 178.933 82.6C180 81.5333 181.066 81 182.133 81C183.093 81 183.84 81.48 184.373 82.44C185.013 83.2933 185.173 84.5733 184.853 86.28C186.346 82.9733 187.573 79.7733 188.533 76.68C189.493 73.48 189.973 70.7067 189.973 68.36C189.973 66.5467 189.6 65.1067 188.853 64.04C188.213 62.8667 187.04 62.28 185.333 62.28C183.84 62.28 182.133 63.24 180.213 65.16C178.293 66.9733 176.32 69.4267 174.293 72.52C172.373 75.5067 170.56 78.76 168.853 82.28C167.253 85.8 165.92 89.2667 164.853 92.68C163.893 95.9867 163.413 98.8667 163.413 101.32C163.413 103.133 163.733 104.627 164.373 105.8C165.12 106.867 166.293 107.4 167.893 107.4Z" stroke="white" stroke-width="8" mask="url(#path-6-outside-1_1205_1568)"/>
</g>
<defs>
<clipPath id="clip0_1205_1568">
<rect width="589" height="175" fill="white"/>
</clipPath>
</defs>
</svg>
