<svg width="500" height="127" viewBox="0 0 500 127" fill="none" xmlns="http://www.w3.org/2000/svg">
<g clip-path="url(#clip0_1205_974)">
<path d="M203.46 22.7982C205.237 26.3489 206.192 30.3063 206.192 34.2715C206.192 46.832 195.806 57.3434 183.104 57.3434C170.402 57.3434 160.017 46.832 160.017 34.2715C160.017 30.3141 160.972 26.3489 162.748 22.7982H156.057V8.19638H175.184V0H191.032V8.19638H210.16V22.806H203.468L203.46 22.7982ZM183.237 25.9422C178.862 25.9422 175.309 29.4929 175.309 33.8648C175.309 38.2368 178.862 41.7797 183.237 41.7797C187.612 41.7797 191.025 38.2289 191.025 33.8648C191.025 29.5007 187.612 25.9422 183.237 25.9422ZM235.705 126.981H181.602V80.8298H197.45V90.6608H219.857V80.8298H235.705V126.981ZM219.857 112.372V103.91H197.45V112.372H219.857ZM245.949 39.0501H235.016V78.374H219.168V5.45904H235.016V23.3456H245.949V39.0501Z" fill="#00AEEF"/>
<path d="M320.824 54.3401H265.352V8.19633H281.2V39.7383H320.824V54.3479V54.3401ZM346.784 78.3739H330.936V5.45898H346.784V78.3661V78.3739Z" fill="#00AEEF"/>
<path d="M426.025 54.3401H370.553V8.19633H424.656V22.8059H386.401V39.7383H426.025V54.3479V54.3401ZM460.453 39.0501H449.52V126.504H433.672V5.45898H449.52V23.3456H460.453V39.0501Z" fill="#00AEEF"/>
<path d="M499.677 126.528H481.098V108.234H499.677V126.528Z" fill="#00AEEF"/>
<path d="M135.438 127H0V112.776H135.438V127Z" fill="#00AEEF"/>
</g>
<defs>
<clipPath id="clip0_1205_974">
<rect width="500" height="127" fill="white"/>
</clipPath>
</defs>
</svg>
