<svg width="18" height="21" viewBox="0 0 18 21" fill="none" xmlns="http://www.w3.org/2000/svg">
<path d="M3.858 0.211914C1.72806 0.211914 0 1.93998 0 4.06992V14.3579C0 16.2869 1.4146 17.8824 3.25921 18.1717L1.41058 20.0204C1.12927 20.3017 1.33021 20.7879 1.72806 20.7879H3.32351C3.6651 20.7879 3.99062 20.6513 4.23175 20.4102L6.43001 18.2159H11.574L13.7683 20.4102C14.0094 20.6513 14.3349 20.7879 14.6765 20.7879H16.2719C16.6738 20.7879 16.8747 20.3017 16.5894 20.0204L14.7408 18.1717C16.5894 17.8864 18 16.2869 18 14.3579V4.06992C18 1.93998 16.2719 0.211914 14.142 0.211914H3.858ZM2.572 4.06992C2.572 3.3586 3.14668 2.78392 3.858 2.78392H14.146C14.8573 2.78392 15.432 3.3586 15.432 4.06992V7.92792C15.432 8.63924 14.8573 9.21392 14.146 9.21392H3.858C3.14668 9.21392 2.572 8.63924 2.572 7.92792V4.06992ZM9.00201 11.7859C9.51361 11.7859 10.0043 11.9892 10.366 12.3509C10.7278 12.7127 10.931 13.2033 10.931 13.7149C10.931 14.2265 10.7278 14.7172 10.366 15.0789C10.0043 15.4407 9.51361 15.6439 9.00201 15.6439C8.49041 15.6439 7.99976 15.4407 7.638 15.0789C7.27624 14.7172 7.07301 14.2265 7.07301 13.7149C7.07301 13.2033 7.27624 12.7127 7.638 12.3509C7.99976 11.9892 8.49041 11.7859 9.00201 11.7859Z" fill="#FF74FF"/>
</svg>
