<svg width="93" height="127" viewBox="0 0 93 127" fill="none" xmlns="http://www.w3.org/2000/svg">
<path d="M46.1846 2C51.9473 2 56.6198 6.67155 56.6201 12.4346C56.6201 16.0194 54.8113 19.1808 52.0576 21.0596C54.8113 22.938 56.6199 26.0997 56.6201 29.6846C56.6201 33.0434 55.0325 36.0268 52.5693 37.9346C53.3499 38.5391 54.0422 39.2512 54.624 40.0498C56.5214 37.4443 59.5948 35.75 63.0645 35.75C68.8271 35.7503 73.4987 40.4219 73.499 46.1846C73.499 49.6548 71.8035 52.7277 69.1973 54.625C70.0792 55.2671 70.8563 56.0434 71.499 56.9248C73.3968 54.3225 76.4676 52.63 79.9346 52.6299C85.6977 52.6299 90.3701 57.3023 90.3701 63.0654L90.3564 63.6025C90.0767 69.116 85.5172 73.5 79.9346 73.5C76.4673 73.4999 73.3958 71.8077 71.498 69.2051C70.8978 70.0275 70.1816 70.7595 69.3711 71.375C71.8787 73.2794 73.4989 76.2907 73.499 79.6846C73.499 85.2672 69.115 89.8266 63.6016 90.1064L63.0645 90.1201C59.5942 90.1201 56.5214 88.4246 54.624 85.8184C53.9381 86.7605 53.0993 87.5832 52.1426 88.25C54.8482 90.1356 56.6201 93.2678 56.6201 96.8154L56.6064 97.3525C56.4417 100.599 54.7916 103.451 52.3242 105.25C54.9268 107.147 56.6199 110.217 56.6201 113.685C56.6201 119.448 51.9477 124.12 46.1846 124.12C40.4215 124.12 35.75 119.447 35.75 113.685L35.7637 113.147C35.9284 109.902 37.5773 107.049 40.0439 105.25C37.4421 103.352 35.7502 100.282 35.75 96.8154C35.75 93.2681 37.5213 90.1356 40.2266 88.25C39.2717 87.5846 38.4342 86.764 37.749 85.8242C35.9502 88.2916 33.0978 89.9417 29.8516 90.1064L29.3145 90.1201C23.5514 90.1201 18.8789 85.4477 18.8789 79.6846L18.8896 79.2031C19.0349 76.0071 20.6178 73.1889 23.0059 71.375C22.1935 70.7579 21.4751 70.0242 20.874 69.1992C18.9766 71.8049 15.9043 73.5 12.4346 73.5C6.67184 73.4998 2.00029 68.8281 2 63.0654C2 57.3027 6.6715 52.6301 12.4346 52.6299C15.9043 52.6299 18.9766 54.325 20.874 56.9307C21.5176 56.0467 22.2967 55.2685 23.1807 54.625C20.5744 52.7277 18.8789 49.6548 18.8789 46.1846L18.8926 45.6475C19.1724 40.134 23.7318 35.75 29.3145 35.75C32.7815 35.7502 35.8516 37.4427 37.749 40.0449C38.3301 39.2484 39.0209 38.5379 39.7998 37.9346C37.337 36.0267 35.75 33.0431 35.75 29.6846L35.7637 29.1475C35.9343 25.7856 37.6959 22.8438 40.3105 21.0596C37.5576 19.1807 35.75 16.0188 35.75 12.4346L35.7637 11.8975C36.0434 6.38435 40.6019 2.00024 46.1846 2ZM54.624 69.1982C54.0228 70.0234 53.3049 70.7578 52.4922 71.375C53.3047 71.992 54.0229 72.7258 54.624 73.5508C55.2251 72.7258 55.9435 71.9921 56.7559 71.375C55.9432 70.7578 55.2252 70.0234 54.624 69.1982ZM37.749 69.2041C37.1486 70.027 36.4319 70.7592 35.6211 71.375C36.4317 71.9906 37.1487 72.7223 37.749 73.5449C38.3494 72.7223 39.0663 71.9906 39.877 71.375C39.0661 70.7592 38.3495 70.0269 37.749 69.2041ZM54.624 52.3184C53.9802 53.2026 53.2017 53.9813 52.3174 54.625C53.2015 55.2685 53.9803 56.0467 54.624 56.9307C55.2676 56.0467 56.0467 55.2685 56.9307 54.625C56.0464 53.9813 55.2677 53.2026 54.624 52.3184ZM37.749 52.3242C37.1062 53.2059 36.3294 53.9828 35.4473 54.625C36.3292 55.2671 37.1063 56.0434 37.749 56.9248C38.3918 56.0434 39.1688 55.267 40.0508 54.625C39.1686 53.9828 38.3919 53.2059 37.749 52.3242Z" fill="#D2FFDE" stroke="#FF74FF" stroke-width="4"/>
</svg>
